<svg viewBox="0 0 330 200" xmlns="http://www.w3.org/2000/svg"><g><g><g><g><g><line x1="50" y1="178" x2="45" y2="178" style="visibility: inherit;" fill="rgb(0, 0, 0)" stroke="rgb(204, 204, 204)" stroke-width="1px"></line><line x1="50" y1="155.75" x2="45" y2="155.75" style="visibility: inherit;" fill="rgb(0, 0, 0)" stroke="rgb(204, 204, 204)" stroke-width="1px"></line><line x1="50" y1="133.5" x2="45" y2="133.5" style="visibility: inherit;" fill="rgb(0, 0, 0)" stroke="rgb(204, 204, 204)" stroke-width="1px"></line><line x1="50" y1="111.24999999999999" x2="45" y2="111.24999999999999" style="visibility: inherit;" fill="rgb(0, 0, 0)" stroke="rgb(204, 204, 204)" stroke-width="1px"></line><line x1="50" y1="88.99999999999999" x2="45" y2="88.99999999999999" style="visibility: inherit;" fill="rgb(0, 0, 0)" stroke="rgb(204, 204, 204)" stroke-width="1px"></line><line x1="50" y1="66.75" x2="45" y2="66.75" style="visibility: inherit;" fill="rgb(0, 0, 0)" stroke="rgb(204, 204, 204)" stroke-width="1px"></line><line x1="50" y1="44.5" x2="45" y2="44.5" style="visibility: inherit;" fill="rgb(0, 0, 0)" stroke="rgb(204, 204, 204)" stroke-width="1px"></line><line x1="50" y1="22.25" x2="45" y2="22.25" style="visibility: inherit;" fill="rgb(0, 0, 0)" stroke="rgb(204, 204, 204)" stroke-width="1px"></line><line x1="50" y1="0" x2="45" y2="0" style="visibility: inherit;" fill="rgb(0, 0, 0)" stroke="rgb(204, 204, 204)" stroke-width="1px"></line></g><g transform="translate(40, 0)"><text x="0" y="178" dx="0em" dy="0.3em" style="text-anchor: end; visibility: hidden; font-family: &quot;Helvetica Neue&quot;, sans-serif; font-size: 12px; font-weight: 200;" fill="rgb(50, 49, 63)" stroke="none" stroke-width="1px">-0.1</text><text x="0" y="155.75" dx="0em" dy="0.3em" style="text-anchor: end; visibility: inherit; font-family: &quot;Helvetica Neue&quot;, sans-serif; font-size: 12px; font-weight: 200;" fill="rgb(50, 49, 63)" stroke="none" stroke-width="1px">0</text><text x="0" y="133.5" dx="0em" dy="0.3em" style="text-anchor: end; visibility: hidden; font-family: &quot;Helvetica Neue&quot;, sans-serif; font-size: 12px; font-weight: 200;" fill="rgb(50, 49, 63)" stroke="none" stroke-width="1px">0.1</text><text x="0" y="111.24999999999999" dx="0em" dy="0.3em" style="text-anchor: end; visibility: inherit; font-family: &quot;Helvetica Neue&quot;, sans-serif; font-size: 12px; font-weight: 200;" fill="rgb(50, 49, 63)" stroke="none" stroke-width="1px">0.2</text><text x="0" y="88.99999999999999" dx="0em" dy="0.3em" style="text-anchor: end; visibility: hidden; font-family: &quot;Helvetica Neue&quot;, sans-serif; font-size: 12px; font-weight: 200;" fill="rgb(50, 49, 63)" stroke="none" stroke-width="1px">0.3</text><text x="0" y="66.75" dx="0em" dy="0.3em" style="text-anchor: end; visibility: inherit; font-family: &quot;Helvetica Neue&quot;, sans-serif; font-size: 12px; font-weight: 200;" fill="rgb(50, 49, 63)" stroke="none" stroke-width="1px">0.4</text><text x="0" y="44.5" dx="0em" dy="0.3em" style="text-anchor: end; visibility: hidden; font-family: &quot;Helvetica Neue&quot;, sans-serif; font-size: 12px; font-weight: 200;" fill="rgb(50, 49, 63)" stroke="none" stroke-width="1px">0.5</text><text x="0" y="22.25" dx="0em" dy="0.3em" style="text-anchor: end; visibility: inherit; font-family: &quot;Helvetica Neue&quot;, sans-serif; font-size: 12px; font-weight: 200;" fill="rgb(50, 49, 63)" stroke="none" stroke-width="1px">0.6</text><text x="0" y="0" dx="0em" dy="0.3em" style="text-anchor: end; visibility: hidden; font-family: &quot;Helvetica Neue&quot;, sans-serif; font-size: 12px; font-weight: 200;" fill="rgb(50, 49, 63)" stroke="none" stroke-width="1px">0.7</text></g><line x1="50" y1="0" x2="50" y2="178" fill="rgb(0, 0, 0)" stroke="rgb(204, 204, 204)" stroke-width="1px"></line></g></g><g transform="translate(50, 0)" clip-path="url(#clip_0)"><clipPath id="clip_0"><rect width="280" height="178"></rect></clipPath><g><g><g><line x1="0" y1="0" x2="0" y2="178" fill="rgb(0, 0, 0)" stroke="rgb(60, 60, 60)" stroke-width="1px" opacity="0.25"></line><line x1="20" y1="0" x2="20" y2="178" fill="rgb(0, 0, 0)" stroke="rgb(60, 60, 60)" stroke-width="1px" opacity="0.25"></line><line x1="40" y1="0" x2="40" y2="178" fill="rgb(0, 0, 0)" stroke="rgb(60, 60, 60)" stroke-width="1px" opacity="0.25"></line><line x1="60" y1="0" x2="60" y2="178" fill="rgb(0, 0, 0)" stroke="rgb(60, 60, 60)" stroke-width="1px" opacity="0.25"></line><line x1="80" y1="0" x2="80" y2="178" fill="rgb(0, 0, 0)" stroke="rgb(60, 60, 60)" stroke-width="1px" opacity="0.25"></line><line x1="100" y1="0" x2="100" y2="178" fill="rgb(0, 0, 0)" stroke="rgb(60, 60, 60)" stroke-width="1px" opacity="0.25"></line><line x1="120" y1="0" x2="120" y2="178" fill="rgb(0, 0, 0)" stroke="rgb(60, 60, 60)" stroke-width="1px" opacity="0.25"></line><line x1="140" y1="0" x2="140" y2="178" fill="rgb(0, 0, 0)" stroke="rgb(60, 60, 60)" stroke-width="1px" opacity="0.25"></line><line x1="160" y1="0" x2="160" y2="178" fill="rgb(0, 0, 0)" stroke="rgb(60, 60, 60)" stroke-width="1px" opacity="0.25"></line><line x1="180" y1="0" x2="180" y2="178" fill="rgb(0, 0, 0)" stroke="rgb(60, 60, 60)" stroke-width="1px" opacity="0.25"></line><line x1="200" y1="0" x2="200" y2="178" fill="rgb(0, 0, 0)" stroke="rgb(60, 60, 60)" stroke-width="1px" opacity="0.25"></line><line x1="220" y1="0" x2="220" y2="178" fill="rgb(0, 0, 0)" stroke="rgb(60, 60, 60)" stroke-width="1px" opacity="0.25"></line><line x1="240" y1="0" x2="240" y2="178" fill="rgb(0, 0, 0)" stroke="rgb(60, 60, 60)" stroke-width="1px" opacity="0.25"></line><line x1="260" y1="0" x2="260" y2="178" fill="rgb(0, 0, 0)" stroke="rgb(60, 60, 60)" stroke-width="1px" opacity="0.25"></line><line x1="280" y1="0" x2="280" y2="178" fill="rgb(0, 0, 0)" stroke="rgb(60, 60, 60)" stroke-width="1px" opacity="0.25"></line></g><g><line x1="0" y1="178" x2="280" y2="178" fill="rgb(0, 0, 0)" stroke="rgb(60, 60, 60)" stroke-width="1px" opacity="0.25"></line><line x1="0" y1="155.75" x2="280" y2="155.75" fill="rgb(0, 0, 0)" stroke="rgb(60, 60, 60)" stroke-width="1px" opacity="0.25"></line><line x1="0" y1="133.5" x2="280" y2="133.5" fill="rgb(0, 0, 0)" stroke="rgb(60, 60, 60)" stroke-width="1px" opacity="0.25"></line><line x1="0" y1="111.24999999999999" x2="280" y2="111.24999999999999" fill="rgb(0, 0, 0)" stroke="rgb(60, 60, 60)" stroke-width="1px" opacity="0.25"></line><line x1="0" y1="88.99999999999999" x2="280" y2="88.99999999999999" fill="rgb(0, 0, 0)" stroke="rgb(60, 60, 60)" stroke-width="1px" opacity="0.25"></line><line x1="0" y1="66.75" x2="280" y2="66.75" fill="rgb(0, 0, 0)" stroke="rgb(60, 60, 60)" stroke-width="1px" opacity="0.25"></line><line x1="0" y1="44.5" x2="280" y2="44.5" fill="rgb(0, 0, 0)" stroke="rgb(60, 60, 60)" stroke-width="1px" opacity="0.25"></line><line x1="0" y1="22.25" x2="280" y2="22.25" fill="rgb(0, 0, 0)" stroke="rgb(60, 60, 60)" stroke-width="1px" opacity="0.25"></line><line x1="0" y1="0" x2="280" y2="0" fill="rgb(0, 0, 0)" stroke="rgb(60, 60, 60)" stroke-width="1px" opacity="0.25"></line></g></g></g><g><g><line x1="0" y1="155.75" x2="280" y2="155.75" fill="rgb(0, 0, 0)" stroke="rgb(153, 153, 153)" stroke-width="1.5px"></line></g></g><g><g><line x1="20" y1="0" x2="20" y2="178" fill="rgb(0, 0, 0)" stroke="rgb(153, 153, 153)" stroke-width="1.5px"></line></g></g><g><g><g><g><g><path stroke="rgb(204, 51, 17)" stroke-width="2px" d="M20.76,111.46913454681635L21,117.33324960238104L21.64,124.73582757052087L21.72,128.5571100739441L21.84,131.22662891459396L22.28,133.9082312476859L22.88,136.37917798192686L23,138.30721998056606L23.8,138.76655944979206L24.12,139.58560394748548L24.28,140.6897656704317L25.08,141.6534739790993L26.24,134.70717999149716L26.36,131.6782470480818L26.720000000000002,124.15708452230746L27.16,122.53139144737872L27.36,120.7267215397718L27.44,117.43858309795982L27.64,115.99735776246368L29.2,106.23820345340461L29.4,104.11526258636194L30,102.74801461133863L30.24,100.03397582906044L30.439999999999998,100.13522229144226L30.72,93.82121270615582L30.96,92.32334251118588L31.72,88.35273067999839L32.36,84.46175836473184L32.44,81.87737445329464L32.760000000000005,79.02713989815943L33.24,78.41222148257586L33.6,75.83347881598418L33.92,75.26614356917244L34.56,73.74352671444294L34.72,72.14000520160735L36.879999999999995,70.24565873520332L36.92,69.31086870846684L37.6,69.31543450187155L37.72,68.66345345640858L37.84,68.77219885086926L38.44,68.54049446178175L38.559999999999995,67.36432324122617L38.599999999999994,65.13970287693789L39,61.9609847912339L39.68,62.82560089524114L39.76,61.438588694607404L40.599999999999994,59.607839222879505L41.28,58.732679233650614L41.48,58.10227564221077L42.56,53.506790528420225L42.96,53.41431837107493L43.199999999999996,53.587582097872016L43.48,51.93022732453731L43.519999999999996,51.588731813631966L44.120000000000005,50.604047662068155L44.84,49.71507046537616L44.919999999999995,47.77997309196752L45.4,49.21131107158334L45.68,48.45393253412439L45.72,47.18639068187554L45.8,44.86370241516178L45.92,44.498985143528415L46,45.481686786730705L46.480000000000004,45.194191607375586L46.88,43.795367692498445L47.559999999999995,44.275680499261256L48.6,43.35408011577411L48.760000000000005,41.18559341439726L48.92,40.91330795348557L49.239999999999995,41.06240651355586L49.599999999999994,41.538193840464544L49.76,42.76545436782362L50.12,41.671373205206095L50.28,42.457683146273666L50.64,41.726786606228956L50.800000000000004,42.52294810371376L50.88,43.33166546909075L50.96,43.73309035567422L51.24,44.06711492717349L51.44,43.42982198646118L51.519999999999996,41.61212496819553L51.72,43.13561528972539L51.8,44.342819525541586L51.96,44.99672901614696L52.12,45.37230422585094L52.36,44.63280473525924L52.4,44.06898222568131L53.32,42.24435630589787L53.480000000000004,40.99400795695718L54.8,41.27082893748974L55.08,40.44941147746826L55.32,40.33075529062549L55.879999999999995,41.458457995263984L56.04,41.83916209400536L56.32,41.534181015511535L56.4,41.26879377640506L56.64,41.81390705162329L56.72,41.77333119060998L57.28,41.27154682773539L57.32,41.914393230769235L57.720000000000006,42.51951498749713L57.84,42.24315413675734L58.199999999999996,43.751390337947015L58.36,43.203151075607764L58.519999999999996,41.68405226730167L58.88,40.92908071272558L58.92,41.08442979739317L59.160000000000004,41.405222776642404L59.2,42.07942284719289L59.4,42.70862774306838L60.120000000000005,39.4944758444978L60.239999999999995,37.89804849468024L60.6,37.52615961951085L61.800000000000004,38.10982781229882L62.31999999999999,38.588353628480576L62.559999999999995,39.50389443966017L62.68,38.824747532299455L62.76,36.734349408591044L62.92,36.69174396327966L63.16,35.49549704182269L63.36,34.93118779771086L63.76,35.4200745393141L64,35.311726739954594L64.2,35.20916798469821L64.6,35.964020212897026L64.8,36.80238150172062L66.28,36.57676316931773L66.44,36.14717534189887L66.48,34.79783684610783L66.52,33.06500227057154L67.24,32.22066601774188L67.75999999999999,33.51696485832551L68,33.674473770823624L68.28,35.24494480346948L69.32000000000001,36.34948810600599L69.8,31.517059209808423L70.24,32.183775636151296L70.36,33.12067984564581L70.48,35.07659438010248L71.28,35.88172885662482L71.52000000000001,33.73934402323576L71.80000000000001,34.77513509810197L72.04,35.98559718056214L72.67999999999999,37.10282219783545L72.8,37.96388190594138L73.24,38.41337147154954L73.36,39.13487213588397L73.48,37.11612378206604L73.52,36.3764596219344L75.44,37.83080343889728L75.56,38.22722278200473L75.68,37.991886122765266L75.72,37.84809794287119L76.6,39.33284575935363L77.08,39.737226273894265L77.16,40.802216714748994L77.32,42.18020831466802L77.47999999999999,43.49082479986623L77.64,45.11270646804505L78.64,45.84365982021612L78.68,45.57161522210981L79.12,45.70537075803793L79.44,45.68471647416666L79.60000000000001,45.54734080225634L79.68,47.03032630375739L80.96000000000001,48.23714488427535L81.11999999999999,48.9911602208565L82.11999999999999,48.861794514170015L82.76,49.15504966635817L82.8,49.8520489370261L83.4,49.9551978355758L83.56,50.45321283799197L84.2,51.20839158273496L84.24000000000001,50.48389872439553L84.76,51.150878091145785L85.12,49.11103622262607L85.32,49.02704073258582L85.52,49.07664394463865L85.64,49.22679345717685L85.83999999999999,48.9932905114691L85.96,48.919696757028476L86.44,48.52739098910473L86.75999999999999,49.35167038108597L87.03999999999999,50.8859159071546L87.32,51.322392521357045L87.68,48.22956156038194L87.84,48.69564998532161L87.92,49.05098926350044L88,48.4502407078331L88.12,49.083374744176695L88.4,50.11757531872068L88.76,52.23234523405836L89.16000000000001,51.867503175615866L89.32000000000001,51.74612754068946L89.4,51.875455237051725L89.52000000000001,48.7958592416914L89.72000000000001,50.298954745328146L89.83999999999999,49.30540152126838L89.88,50.32942634704621L90.67999999999999,50.05243930158713L91.03999999999999,51.2275811872763L91.28,50.01726502488803L91.56,51.4110275379053L91.6,52.039223690532864L91.96,51.80173684447466L92.24,50.42725173923543L93.08,50.36677037647031L93.24000000000001,51.112398825917765L93.64,52.212733679910556L93.80000000000001,53.16299088395773L94.16,54.5420931484919L94.67999999999999,54.17287984909845L94.8,55.298702301202866L95.03999999999999,54.5980066347628L95.11999999999999,55.411304382916086L96.48,52.85378844887113L96.72,53.11396712369728L97.4,53.5076298994981L97.48,52.98836601819755L97.80000000000001,52.916711409801806L97.92,53.77718974380207L98,54.84931994206529L98.72,55.781820542201004L99.28,54.782279436881566L99.36,53.552192925953946L100.08,53.51769197615464L100.24,53.31197528679573L100.56,54.46716736561774L101.24000000000001,53.484375956447465L101.48,53.66958271091319L102.44000000000001,54.30551810800756L102.96,55.27451692458946L103.08,52.990257368747535L103.11999999999999,50.426340410912104L103.19999999999999,51.10071299212487L103.28,50.651546000711036L103.44,51.214899782796024L103.6,51.120621762600706L103.88,51.905334365323455L104.48,52.753843298577664L105.84,53.85556854864518L106,52.987463664722725L106.28,52.04080910036953L106.64,53.00886887005886L107.12,50.6627503578474L107.52,50.60031554113358L107.6,48.92416827179213L107.67999999999999,47.81548545624497L107.72,48.74449680418596L107.88,47.63965175592949L108,47.00197223199228L108.32,46.6649390522478L108.48,47.94280114810658L109.28,49.09056026563249L109.48,49.97017109563919L109.52,50.526952856111194L109.6,50.217516816244924L109.72,51.02871000074053L109.88,52.44527280198494L109.92,53.07413261592926L110.2,54.01308844965797L110.32000000000001,52.93731394566025L110.52000000000001,53.26156829813549L111.28,53.01363327884289L111.67999999999999,52.208239793143704L111.91999999999999,53.22484672146757L112.16,54.83590260626322L112.32,56.11030075054303L112.8,56.66331421720521L112.84,57.36968958713071L113.84,53.49596978991332L114.2,53.67476793965611L114.88000000000001,54.35723569743119L115.60000000000001,55.759994136537756L115.64,56.325811693081675L115.72000000000001,53.44184366731331L116.27999999999999,52.96241472680191L117.48,54.26731829222339L117.8,55.17330614720002L118.08,55.388233014822205L118.16,55.300932169642024L118.24,54.641498694297866L118.44,52.39861663972158L119.44,51.63915004803687L119.48,50.92461737807672L119.88000000000001,51.74411703017299L119.96000000000001,51.25241260814711L120.16000000000001,52.204868660050536L120.72,53.58252123871567L120.96,54.62835625195254L121.32,55.78942444927493L121.92,54.47475714146972L122.08,55.17176386356486L122.16,56.1577770281516L122.68,57.549882758643264L123.16,57.95110757142476L123.64,57.28563963885439L124.04,55.52853886870301L124.28,56.23428446374835L124.96,57.01250446517112L125.19999999999999,55.68183711025492L125.24,54.995926399642556L125.56,55.330851082519004L125.8,56.574599619745726L126.03999999999999,56.202028850992576L126.24,56.88766037637214L127.16,57.30913366927193L127.44,57.67405169800455L127.64,55.79924969952029L128.16,55.92540924295112L128.44,57.491694494967746L129.04,57.548595272605965L129.52,55.92091830846368L129.64000000000001,56.515972871601775L130.20000000000002,57.5864416028316L130.24,59.1816527496031L130.32,59.681399404489994L131.6,59.091533186060886L131.64,59.05527685905949L131.68,59.14427121156068L131.96,57.16614701881386L132.4,56.667095907827644L133,58.668998388915014L133.2,59.509393857489115L134.92000000000002,59.26181446667964L135.28,59.97710492307171L135.64,60.24439447834645L135.88,58.9601083466392L136.04,59.3470002048588L136.72,61.11069136928927L136.79999999999998,61.327430829161074L136.84,62.15776289578652L137.32,61.065394204047564L138.72,62.239147255453574L139.04,61.990516233078765L139.95999999999998,64.29165910456196L140.32,61.674751276944775L140.4,60.844806007718816L140.48,61.33008115128807L140.64000000000001,62.33885274796728L140.68,63.09053837918718L141.12,63.3477899200882L141.24,64.74006530060612L141.56,63.48451305016738L141.68,62.815658362975455L142.64000000000001,64.29725815893198L142.8,64.10951411081749L142.88,63.70282782864122L143.48000000000002,61.76050759522802L144,62.48047346873311L144.92,64.29687077014144L145.51999999999998,65.76234092886077L145.84,65.99213973888983L146.04,66.58107363993342L146.23999999999998,67.50423258478133L146.4,68.44572487018354L146.48,68.11876175119477L147.12,67.9171174408661L147.84,68.70071756448843L147.88,69.4997826607884L148.16,70.475733736342L148.28,71.32485326764156L149.24,70.75668339867481L149.36,69.63063718046968L149.64000000000001,65.63247888783943L149.76,64.40532694442588L149.8,65.57655706065098L149.88,65.52201376035086L149.92000000000002,64.23370765708135L150.92000000000002,63.89912719244522L151.28,64.4456902894168L152.24,64.53948996375453L152.56,66.06974726923933L153.11999999999998,66.90413859628225L153.16000000000003,68.23068133911688L153.35999999999999,68.70727562584301L153.83999999999997,66.390355189703L155,67.38931483654858L155.07999999999998,67.69577713232941L155.16,67.16225312818788L155.48,66.59240267951735L156.16,67.98759785511928L156.35999999999999,68.07549542216601L157.24,68.0496894286815L157.36,69.16376708340368L157.56,70.03861098636855L158,68.51797041604007L158.08,68.85008891798965L158.36,70.12942309473574L158.6,69.84887798227294L158.88,70.73186237680358L159.12,70.62562761673692L159.24,72.17260363797989L159.92000000000002,71.11523387872862L160.4,70.71477108858693L160.52,71.55346601462358L160.8,70.71183428184429L161.44000000000003,71.96119901899263L161.52,72.92827443463032L161.76000000000002,71.99818239862763L161.92000000000002,71.04621015559192L162.55999999999997,71.60395498830599L163.23999999999998,71.46864419475581L164.04,71.13408552548381L164.76,70.43458723644581L164.84,71.58303650594743L164.92,71.73404468777775L165.04,72.89465371872583L165.16,73.83699302476712L165.84,74.47047666101267L166.28,75.50086502172657L166.84,76.4273456555037L168.04,76.95115576734482L168.12,77.95757448125842L169.08,78.32836356318425L169.24,79.06234343207052L169.32000000000002,80.45069328748706L169.56,81.23942072575356L169.68,82.82998136756189L169.76000000000002,83.60871987174681L170.12,83.39429875267068L170.39999999999998,84.48475632322342L170.92,85.41285168524738L171.23999999999998,85.20140745518222L171.76,83.44237129063235L171.84,84.23629937875062L171.95999999999998,85.0614414633119L172.44,85.70111947548008L172.6,86.47796731172618L172.79999999999998,87.3134219676781L172.88,87.53118176593685L173.28,88.34339810099148L173.44,88.13789097378317L174.6,87.26718475418777L174.8,83.609703629469L175.08,81.3811089795326L176.12,81.77726347893068L176.84,81.7619398879773L177.16,81.94868628948905L177.44,83.01829410006908L177.6,84.7536036668434L178.04000000000002,83.37779200709932L178.28,83.60838888819573L178.52,83.27378616892202L179.39999999999998,84.02394697537986L179.83999999999997,84.21733917929987L180.04,83.03775857582917L180.39999999999998,82.51649818987858L180.44,81.71775822668293L180.92,82.17301601045034L181.35999999999999,82.32869555717656L181.48,82.82032590887222L181.88,82.78461098832862L183.76,82.77334543411628L183.96,81.96841518632664L184,81.18951031846368L184.4,78.81789659416957L187.32000000000002,79.6339046374488L187.76000000000002,79.50047430892178L187.8,79.5468361205595L187.88000000000002,80.04760523203336L187.95999999999998,79.31324503253184L188.07999999999998,79.7763360224081L188.11999999999998,80.57150922834306L189.11999999999998,81.66950422075539L189.32,82.27755346523652L189.44,82.81635706900158L189.76,83.31982254364357L190.2,81.31847593721702L190.56,81.22417179881529L190.68,81.11969674300381L190.72,81.08834073493753L191.32,81.99399444470166L191.96,82.6539343482357L192.2,83.86168224939067L192.36,83.20360114697121L192.72,82.88891144984241L192.8,82.07743884606157L193.16,83.41242261626313L193.32,84.06505567393346L193.56,82.99612001762253L193.76,81.9197878397723L194.8,80.41880443452072L195.16,80.85649762693433L195.76000000000002,81.85198753548917L196.04000000000002,82.81533566042043L196.28,83.28411144550927L196.44000000000003,84.37883023942635L196.48000000000002,84.39499545382229L197.23999999999998,84.80209496627629L197.35999999999999,83.61766873440942L197.6,83.82904028888548L198.79999999999998,82.09335144924098L199.04,82.79787117809897L199.64,82.68352071646552L199.72,83.1403969389954L200.4,83.42728758228495L200.44,83.58367276755607L201.2,83.87219985855268L201.24,84.26435390353342L201.36,85.35443432293687L201.72,85.3162263482034L202.16,85.667807973729L203.16,85.600208087933L203.28,85.06132388888888L203.72,84.9822577593568L203.84,85.45058780119646L203.92000000000002,85.61950271517283L204,85.14990369621468L204.48000000000002,84.91358169044639L205.16000000000003,84.23253807843513L206,83.32376054651107L206.28,83.79824949270989L206.6,85.33006201789912L206.76,86.36482966920089L207.04,85.94989702027766L207.07999999999998,85.22152037557848L207.12,84.4406239555258L207.51999999999998,84.68649813245862L208.56,85.92328092469876L208.76,84.8736275045021L209.4,84.89068086041432L209.84,85.75657382440819L210,85.6323424645204L210.04,87.06470027477435L210.36,87.72402232761844L210.48,86.60285854635627L210.6,87.29944730596264L210.72,87.82867840004049L211.08,86.88876920788442L211.24,87.14155600285889L211.52,87.74532934733753L211.56,87.86890278972102L211.8,88.58631073436307L212.04000000000002,87.72620604444919L212.12,89.35946234508954L212.24,89.1235245128886L213.64000000000001,89.19085969534608L214.12,90.69510184786515L214.88,89.51884319583209L214.95999999999998,87.48933274251762L215.72,85.86566296392239L215.79999999999998,83.81432757390425L216.6,83.15721428542761L217.56,80.56069299314817L217.68,82.23908746566268L218.2,82.8912578582464L218.52,82.59435982242019L218.88,83.698541934283L219,82.32984555296896L219.08,82.01877717694664L219.12,83.06366419366041L219.68,82.9667748675769L220.88,83.66248718526097L221.12,83.78090908607392L221.24,82.5191402874684L221.52,82.62890843415268L222.04000000000002,81.02419253512227L222.12,79.42850504284954L222.16000000000003,80.69807532110018L222.44000000000003,81.3806473320782L223.16000000000003,81.51405381290067L224.07999999999998,82.4098344209064L224.28,83.1020934653534L225.07999999999998,82.95186876855736L225.16,82.99198769415771L225.4,81.27197206735332L226.44,80.74293965724208L226.64,81.12635207272112L227.16,81.98099880161423L227.32,81.3176325639225L228.04,80.14768728598833L228.36,80.64209692039323L229.28,78.99558412051756L229.4,78.53951900666624L229.44,78.6863868470466L229.6,78.30632878272418L229.64000000000001,79.29183000499674L230.68,78.73541923763017L231.60000000000002,73.16312754583527L232.11999999999998,74.83918124683827L232.76,75.68281980563857L233.2,77.31683139230394L233.84,78.51517683547672L234.4,79.46643576338332L234.44,78.85083769947464L234.56,79.87017313617521L235.24,80.24962578285843L236.2,81.121408773225L236.28,82.64838245567147L236.84,81.51359456868221L237.6,82.59036451173125L237.64000000000001,82.60282846764375L237.72,82.90762547755523L237.92000000000002,82.32355813008564L239.04000000000002,83.32854428460348L239.4,83.53191341037068L239.68,84.55437488740955L239.84,84.37211520280809L240.08,84.0305778133626L240.32000000000002,83.8410038430844L240.51999999999998,82.77830658532912L240.64,82.06811962350879L240.72000000000003,83.46803741213115L241.32,80.11229463816804L241.67999999999998,79.68002475550313L242,81.31820635350432L242.67999999999998,82.45041175236183L242.88,80.41731665710604L242.95999999999998,81.7741728686366L243.44,82.27448074452461L243.51999999999998,83.50010107251998L243.76,80.16898328681415L244.24,81.32575403689647L244.44,81.08655113374216L244.84,81.29980103703596L245.24,82.24438820850949L246.36,82.1806121847913L246.44,82.66142656298504L246.6,82.57993655353171L247.20000000000002,83.82782564872707L248.84,85.39528415011989L248.96,84.44547553389519L249.67999999999998,82.62431290140123L250.11999999999998,82.79764957631939L250.39999999999998,81.89595310128774L251.07999999999998,82.36052532773607L251.2,81.27167358926135L251.4,81.62117228904668L251.6,81.15340063417278L251.84,81.98708891157656L252.32,82.19018503620285L252.35999999999999,83.70739928598067L253.04,84.6836391416958L253.16,84.93761886502521L253.44,85.2099186621824L254.52,86.00719220606467L254.6,86.6692489135805L254.88,81.43332187174265L255.6,82.19013536913475L255.68,83.47450171210718L255.96,83.590097930232L256.32,83.31709555146125L256.71999999999997,83.30946711349945L256.76,83.32683481555961L257.16,83.1114579597771L257.32,84.05827742280823L257.36,84.25383083161177L258.12,85.00723264986355L258.32,86.75757114466046L258.4,87.486467315198L258.56,87.73922286176301L258.92,86.74316408453035L259.64,87.6878155063377L260.44,88.0852725221913L260.64,88.30114376389106L261,87.34788768254393L261.24,86.83059112395694L261.28000000000003,85.18966555934028L261.32,83.34849649260961L261.44,83.55473412020953L261.56,83.44573484846921L262.44,81.75712537730193L263.15999999999997,83.0557322677579L263.32,83.27746401405922L263.52,84.08776763456464L263.8,84.99756370947182L264.15999999999997,85.71890642376722L264.24,85.63730730864943L264.64,85.78080740771823L264.88,81.19712713999566L264.96,81.69846394701884L265.2,81.72385868755082L265.28,82.9746134418362L265.36,84.051739057963L265.84,82.76059740403487L265.92,83.99171104241245L266,84.17897789331212L266.92,84.58923348936041L267.28000000000003,83.42109187188971L267.4,78.79963478833213L268.04,80.3262227822566L268.44,81.255002697347L268.48,81.50830400073197L268.56,80.17446829308965L268.8,81.47827872034713L269.04,81.60352573589928L269.32,82.45785471524408L269.52,83.27926965579847L269.8,83.05042504555794L270.04,83.96862601534932L270.56,85.42458369146358L271.59999999999997,85.8840386685391L272.4,85.44007252384327L272.52,87.24616132998263L272.68,85.88972965949995L272.71999999999997,83.75393651088955L273,85.04190202085815L273.68,84.3495165260618L274.12,84.42228821944653L274.56,84.72062787349067L274.84,83.70782329125171L275.08,84.95687297313148L276.04,86.07856772637805L278.24,86.16541383758783L278.40000000000003,87.63662438798745L278.92,87.54000277401906L279.36,86.71412854528145L279.52000000000004,85.58884555451182L279.84000000000003,86.03664318046236L279.88,85.90049739695394L280.04,86.10374385750343" style="fill: none;" fill="none"></path></g></g></g></g><g opacity="0.2"><g><g><g><path stroke="rgb(204, 51, 17)" stroke-width="2px" d="M20.76,111.46913454681635L21,122.93347948044538L21.64,138.55662570148706L21.72,139.0198154821992L21.84,140.7562732025981L22.28,145.61116630025208L22.88,149.03727090731263L23,149.58095542900264L23.8,141.77023523300886L24.12,145.48260912112892L24.28,149.33630779664963L25.08,149.78088555671275L26.24,72.12822404503822L26.36,102.72598978877068L26.720000000000002,48.317960396409035L27.16,105.3239558339119L27.36,100.76099739223719L27.44,79.55753561854362L27.64,98.76449440419674L29.2,-14.521791368722916L29.4,77.0006553530693L30,84.76536375284195L30.24,63.3521596044302L30.439999999999998,101.53873939812183L30.72,4.2028471529483795L30.96,70.58945019543171L31.72,29.540346682071686L32.36,25.706584572792053L32.44,42.14023333787918L32.760000000000005,34.45245799422264L33.24,68.64104528725147L33.6,34.23799765110016L33.92,65.98494511842728L34.56,48.501407474279404L34.72,45.22152756154537L36.879999999999995,38.066998690366745L36.92,53.25371791422367L37.6,69.39469349384308L37.72,57.23218207061291L37.84,70.69689919054508L38.44,64.40279115736485L38.559999999999995,46.18255418539047L38.599999999999994,24.754662334918976L39,3.8166302144527435L39.68,78.7549704015255L39.76,35.710109889507294L40.599999999999994,25.428042083978653L41.28,42.29306501150131L41.48,46.191187769174576L42.56,-33.80346181988716L42.96,51.64817635715008L43.199999999999996,56.913329631090164L43.48,19.966564297676086L43.519999999999996,44.97291085124016L44.120000000000005,31.445742815732956L44.84,32.34822419285774L44.919999999999995,9.82951682806015L45.4,77.3859505802393L45.68,33.49317532777786L45.72,22.06441906094551L45.8,-1.317301869392395L45.92,37.22548288106918L46,65.13613519072533L46.480000000000004,39.42835968732834L46.88,15.667941391468048L47.559999999999995,53.95785231888294L48.6,24.732276022434235L48.760000000000005,-2.7298941016197205L48.92,35.387179374694824L49.239999999999995,44.09463268518448L49.599999999999994,51.23326037824154L49.76,67.81989333033562L50.12,19.296035885810852L50.28,58.56599119305611L50.64,26.729458689689636L50.800000000000004,58.88464470207691L50.88,59.97583155333996L50.96,52.00637724995613L51.24,50.9605001360178L51.44,30.261005580425262L51.519999999999996,4.006131410598755L51.72,74.69139051437378L51.8,69.37509220838547L51.96,58.570341140031815L52.12,53.17620795965195L52.36,29.25232183933258L52.4,32.33156707882881L53.32,4.226851433515549L53.480000000000004,14.920280992984772L54.8,47.04802122712135L55.08,23.29358410835266L55.32,37.85074797272682L55.879999999999995,65.04464042186737L56.04,49.8069419413805L56.32,35.14718961715698L56.4,35.707643151283264L56.64,53.243234276771545L56.72,40.92211556434631L57.28,30.739420175552368L57.32,55.41405674815178L57.720000000000006,55.23302336037159L57.84,36.43421691656113L58.199999999999996,75.46736535429955L58.36,31.66971203684807L58.519999999999996,9.713765799999237L58.88,25.03427904844284L58.92,44.3562528192997L59.160000000000004,48.16380251944065L59.2,56.288376197218895L59.4,55.97345595061779L60.120000000000005,-28.28621718287468L60.239999999999995,4.222634106874466L60.6,29.679306268692017L61.800000000000004,50.42843398451805L62.31999999999999,48.69039145112038L62.559999999999995,58.8362382799387L62.68,24.480788081884384L62.76,-7.42558228969574L62.92,35.79151225090027L63.16,10.214407563209534L63.36,23.00301295518875L63.76,45.75585488975048L64,33.02070212364197L64.2,33.04019731283188L64.6,51.93056483566761L64.8,54.537953555583954L66.28,31.8031148314476L66.44,27.056686103343964L66.48,6.240823835134506L66.52,-3.6127741932868958L67.24,14.347029596567154L67.75999999999999,60.96124705672264L68,37.00949740409851L68.28,68.50083906948566L69.32000000000001,59.74132564663887L69.8,-70.83298224210742L70.24,46.30599056184292L70.36,52.96764922142029L70.48,76.51323583722115L71.28,52.94008408486843L71.52000000000001,-11.654685616493225L71.80000000000001,56.72361624240875L72.04,61.63712006807327L72.67999999999999,60.7800545245409L72.8,56.21336613595486L73.24,47.94051629304886L73.36,54.42828980088234L73.48,-5.676956653594971L73.52,20.696373999118805L75.44,68.6628547012806L75.56,46.63169947266579L75.68,33.002294421195984L75.72,34.79937952756882L76.6,70.81501749157906L77.08,48.31193280220032L77.16,63.385705918073654L77.32,71.4020415097475L77.47999999999999,71.28484492003918L77.64,79.50879764556885L78.64,61.34585265815258L78.68,39.801871597766876L79.12,48.54224790632725L79.44,45.24663922190666L79.60000000000001,42.63352793455124L79.68,78.4860362559557L80.96000000000001,73.83566443622112L81.11999999999999,64.98537239432335L82.11999999999999,46.11762326955795L82.76,55.37585546076298L82.8,64.63774797320366L83.4,52.14337405562401L83.56,61.01817433536053L84.2,67.22913604974747L84.24000000000001,35.113888651132584L84.76,65.30096900463104L85.12,5.834766894578934L85.32,47.24500884115696L85.52,50.1290303170681L85.64,52.41242092847824L85.83999999999999,44.03914433717728L85.96,47.35826660692692L86.44,40.20379078388214L86.75999999999999,66.84069772064686L87.03999999999999,83.4388819038868L87.32,60.58345814049244L87.68,-17.39406931400299L87.84,58.58519461750984L87.92,56.59070414304733L88,35.703240156173706L88.12,62.51765277981758L88.4,72.062126070261L88.76,97.10565936565399L89.16000000000001,44.125864773988724L89.32000000000001,49.17062294483185L89.4,54.61971399188042L89.52000000000001,-16.55177104473114L89.72000000000001,82.19414059817791L89.83999999999999,28.22241884469986L89.88,72.05912221968174L90.67999999999999,44.174775153398514L91.03999999999999,76.16420564055443L91.28,24.334123253822327L91.56,80.9870634675026L91.6,65.36977906525135L91.96,46.76215809583664L92.24,21.25994411110878L93.08,49.08331897854805L93.24000000000001,66.93514329195023L93.64,75.56266632676125L93.80000000000001,73.32822588086128L94.16,83.80785819888115L94.67999999999999,46.33782607316971L94.8,79.18977943062782L95.03999999999999,39.72850602865219L95.11999999999999,72.67038260400295L96.48,-1.4196582436561584L96.72,58.635272055864334L97.4,61.86164629459381L97.48,41.96891438961029L97.80000000000001,51.396104887127876L97.92,72.03772392868996L98,77.60143873095512L98.72,75.57083573937416L99.28,33.57053276896477L99.36,27.44788956642151L100.08,52.78552834689617L100.24,48.94634206593037L100.56,78.98220208287239L101.24000000000001,32.627933740615845L101.48,57.5999780446291L102.44000000000001,67.80114081501961L102.96,75.83833095431328L103.08,4.514306008815765L103.11999999999999,-3.98448246717453L103.19999999999999,65.41209821403027L103.28,41.11941483616829L103.44,63.17029070854187L103.6,49.11986914277077L103.88,68.55838966369629L104.48,70.7607890367508L105.84,77.23625537753105L106,34.56462827324867L106.28,31.95098650455475L106.64,73.55296429991722L107.12,0.8735595345497131L107.52,49.27532669901848L107.6,13.353026926517487L107.67999999999999,24.287043035030365L107.72,68.45996548235416L107.88,24.192630618810654L108,33.469131261110306L108.32,39.51241445541382L108.48,75.06162670254707L109.28,73.4483467489481L109.48,68.63731202483177L109.52,62.3430050611496L109.6,43.650646328926086L109.72,68.24390706419945L109.88,82.50767496228218L109.92,66.41984698176384L110.2,73.93969182670116L110.32000000000001,30.10712620615959L110.52000000000001,60.142926543951035L111.28,47.75193017721176L111.67999999999999,35.11609014868736L111.91999999999999,74.79939651489258L112.16,89.02592462301254L112.32,83.1557374894619L112.8,68.3994375616312L112.84,72.36048203706741L113.84,-28.71264460682869L114.2,57.46924754977226L114.88000000000001,68.84066541492939L115.60000000000001,85.5295420140028L115.64,68.33367776870728L115.72000000000001,-7.762172698974609L116.27999999999999,42.78789800405502L117.48,81.96019169688225L117.8,74.40032866597176L118.08,59.949446737766266L118.16,53.448218896985054L118.24,40.646888583898544L118.44,4.799784541130066L119.44,35.521616607904434L119.48,35.7606780230999L119.88000000000001,69.13568598031998L119.96000000000001,40.817372024059296L120.16000000000001,72.4180657863617L120.72,82.81931948661804L120.96,76.82326239347458L121.32,80.4298326075077L121.92,26.574637711048126L122.08,69.96377398073673L122.16,77.08313857018948L122.68,87.09342089295387L123.16,66.46597896516323L123.64,43.162948310375214L124.04,18.238998770713806L124.28,71.2117578536272L124.96,73.52804493904114L125.19999999999999,27.442147105932236L125.24,40.43939080834389L125.56,62.43869063258171L125.8,82.96968442201614L126.03999999999999,48.29525579512119L126.24,71.43827338516712L127.16,66.25372675061226L127.44,65.41841757297516L127.64,16.011812657117844L128.16,58.60279333591461L128.44,90.73172715306282L129.04,58.756155490875244L129.52,21.378015995025635L129.64000000000001,69.144346088171L130.20000000000002,80.3041549474001L130.24,93.03556118905544L130.32,70.28712888062L131.6,46.573266953229904L131.64,58.28583736717701L131.68,61.032928347587585L131.96,15.185972571372986L132.4,46.076126366853714L133,101.15380224585533L133.2,77.34444704651833L134.92000000000002,54.00763136148453L135.28,75.15715312957764L135.64,65.91687110066414L135.88,31.70471054315567L136.04,67.55770292878151L136.72,98.54012732207775L136.79999999999998,65.92712265253067L136.84,79.77925029397011L137.32,37.882908403873444L138.72,87.14878988265991L139.04,56.714014530181885L139.95999999999998,113.1270147189498L140.32,6.138162434101105L140.4,43.23152628540993L140.48,71.62869629263878L140.64000000000001,83.74722418189049L140.68,79.04297535121441L141.12,68.8072384595871L141.24,94.28723853826523L141.56,36.83890786767006L141.68,48.62107743322849L142.64000000000001,95.74009430408478L142.8,60.125168681144714L142.88,55.07204216718674L143.48000000000002,20.54016050696373L144,77.75974762439728L144.92,102.84485407918692L145.51999999999998,96.86287131905556L145.84,70.86898070573807L146.04,79.07955867052078L146.23999999999998,87.09571522474289L146.4,88.4262817800045L146.48,61.17987830936909L147.12,63.637777388095856L147.84,85.33045236766338L147.88,86.45771858096123L148.16,91.18758302927017L148.28,89.345055565238L149.24,58.69885687530041L149.36,45.73343542218208L149.64000000000001,-19.217320412397385L149.76,38.3624370098114L149.8,90.43266166746616L149.88,64.36448377370834L149.92000000000002,36.892990440130234L150.92000000000002,56.7985865175724L151.28,76.0449733287096L152.24,66.53012742102146L152.56,98.5452066808939L153.11999999999998,84.61177614331245L153.16000000000003,96.38286527991295L153.35999999999999,78.82166516780853L153.83999999999997,17.22015631198883L155,88.5894578397274L155.07999999999998,74.19958789646626L155.16,55.83968845009804L155.48,54.49891012907028L156.16,97.59673920273781L156.35999999999999,69.94087707996368L157.24,67.50202891230583L157.36,92.80697014927864L157.56,88.60474233329296L158,36.246598929166794L158.08,75.89838144183159L158.36,97.27973681688309L158.6,63.895087361335754L158.88,89.4707531183958L159.12,68.37108996510506L159.24,105.00287205725908L159.92000000000002,48.67549818754196L160.4,62.21606087684631L160.52,89.3524358868599L160.8,52.850538834929466L161.44000000000003,98.47549480199814L161.52,93.45176358520985L161.76000000000002,52.259562730789185L161.92000000000002,50.84324386715889L162.55999999999997,83.44053965806961L163.23999999999998,68.59704849123955L164.04,64.0340071618557L164.76,55.58967922627926L164.84,95.95568192005157L164.92,74.93877385556698L165.04,97.52535630762577L165.16,93.83552704751492L165.84,87.91440707445145L166.28,97.36799564957619L166.84,96.08932343125343L168.04,88.06757029891014L168.12,99.31601595878601L169.08,86.19733181595802L169.24,94.63902723789215L169.32000000000002,109.9145622998476L169.56,97.97796961665154L169.68,116.58521261811256L169.76000000000002,100.13528139144182L170.12,78.84380613267422L170.39999999999998,107.62668912112713L170.92,105.10909762978554L171.23999999999998,80.71409103274345L171.76,46.1117150336504L171.84,101.08521763980389L171.95999999999998,102.57279009371996L172.44,99.27650836110115L172.6,102.96440467983484L172.79999999999998,105.04362628608942L172.88,92.15252858400345L173.28,105.58043361455202L173.44,83.77657306194305L174.6,68.78886391222477L174.8,5.989826589822769L175.08,34.08537817001343L176.12,90.1845422834158L176.84,81.43673923611641L177.16,85.91185991466045L177.44,105.717748709023L177.6,121.58072885870934L178.04000000000002,54.18001127243042L178.28,88.50216713547707L178.52,76.17277291417122L179.39999999999998,99.94402629137039L179.83999999999997,88.32155150175095L180.04,58.004436910152435L180.39999999999998,71.45419445633888L180.44,64.76672124862671L180.92,91.83459785580635L181.35999999999999,85.63256148993969L181.48,93.2538144737482L181.88,82.02666100859642L183.76,82.53426533937454L183.96,64.88600660860538L184,64.65941813588142L184.4,28.48698315024376L187.32000000000002,96.95140865445137L187.76000000000002,76.6687862277031L187.8,80.53073678910732L187.88000000000002,90.67503859102726L187.95999999999998,63.72848969697952L188.07999999999998,89.60415591299534L188.11999999999998,97.44685170054436L189.11999999999998,104.97139793634415L189.32,95.18170964717865L189.44,94.25096687674522L189.76,94.00447872281075L190.2,38.84545353055L190.56,79.22282841801643L190.68,78.90250389277935L190.72,80.4228965640068L191.32,101.21397872269154L191.96,96.65932562947273L192.2,109.49277658760548L192.36,69.23765775561333L192.72,76.21049676835537L192.8,64.8561869263649L193.16,111.74374484270811L193.32,97.91537944972515L193.56,60.310929983854294L193.76,59.077627182006836L194.8,48.56460106372833L195.16,90.14531981945038L195.76000000000002,102.97849559038877L196.04000000000002,103.25972364097834L196.28,93.23257532715797L196.44000000000003,107.61119575053453L196.48000000000002,84.73805722594261L197.23999999999998,93.44165128469467L197.35999999999999,58.481512039899826L197.6,88.31481438875198L198.79999999999998,45.25817719101906L199.04,97.74934542179108L199.64,80.2567498087883L199.72,92.83632566034794L200.4,89.51574456691742L200.44,86.90251392126083L201.2,89.99538590013981L201.24,92.58673419058323L201.36,108.48836322128773L201.72,84.50536821782589L202.16,93.12915135920048L203.16,84.16558828949928L203.28,73.62500366568565L203.72,83.3042987883091L203.84,95.38959202170372L203.92000000000002,89.20425255596638L204,75.18396896123886L204.48000000000002,79.89830356836319L205.16000000000003,69.77927920222282L206,64.03748181462288L206.28,93.86795935034752L206.6,117.83852782845497L206.76,108.32489871233702L207.04,77.1441041380167L207.07999999999998,69.76374936103821L207.12,67.86826659739017L207.51999999999998,89.9044945538044L208.56,112.1705601811409L208.76,62.59764936566353L209.4,85.2525909692049L209.84,104.13274672627449L210,82.99587693810463L210.04,117.46251602470875L210.36,101.71630144864321L210.48,62.80927163362503L210.6,102.08260875940323L210.72,99.06013828516006L211.08,66.94180746376514L211.24,92.5062535405159L211.52,100.55874143540859L211.56,90.49140584468842L211.8,103.81130155920982L212.04000000000002,69.47287318110466L212.12,124.02079050242901L212.24,84.11639940738678L213.64000000000001,90.61986190080643L214.12,122.61846308410168L214.88,64.55602069199085L214.95999999999998,44.41861090064049L215.72,51.40778210759163L215.79999999999998,40.28043207526207L216.6,69.21181005239487L217.56,25.456741124391556L217.68,117.85834793746471L218.2,96.73176285624504L218.52,76.2935237288475L218.88,107.13174008578062L219,53.28306679427624L219.08,75.41721497476101L219.12,105.23848865926266L219.68,80.91056805849075L220.88,98.42704859375954L221.12,86.29408498108387L221.24,55.74160245060921L221.52,84.95843243598938L222.04000000000002,46.96855512261391L222.12,45.56447048485279L222.16000000000003,107.64117789268494L222.44000000000003,95.86634223163128L223.16000000000003,84.34523579478264L224.07999999999998,101.4202895462513L224.28,97.79336874186993L225.07999999999998,79.76376686990261L225.16,83.84340044856071L225.4,44.76941820979118L226.44,69.51569628715515L226.64,89.26321555674076L227.16,100.11850160360336L227.32,67.23952685296535L228.04,55.318848609924316L228.36,91.13456805050373L229.28,44.05292358994484L229.4,68.86080381274223L229.44,81.80324879288673L229.6,70.24065208435059L229.64000000000001,100.20635594427586L230.68,66.92714628577232L231.60000000000002,-45.093285024166136L232.11999999999998,110.40876534581184L232.76,93.58670477569103L233.2,111.99418839812279L233.84,103.94673012942076L234.4,99.6542641222477L234.44,65.7864787876606L234.56,101.50273629277945L235.24,88.30245417356491L236.2,99.62258112430573L236.28,115.05415727198124L236.84,57.43087385594845L237.6,105.44181552529335L237.64000000000001,82.86734130978584L237.72,89.37609535455704L237.92000000000002,69.92835108935833L239.04000000000002,104.65658378601074L239.4,87.8478581905365L239.68,106.25327956676483L239.84,80.50415967404842L240.08,76.78239543735981L240.32000000000002,79.81782291829586L240.51999999999998,60.225509226322174L240.64,66.9963741004467L240.72000000000003,113.17740381509066L241.32,8.895975768566132L241.67999999999998,70.50629724562168L242,116.08406026661396L242.67999999999998,106.47832632809877L242.88,37.270520746707916L242.95999999999998,110.56967691332102L243.44,92.89212566614151L243.51999999999998,109.51048803329468L243.76,9.475261390209198L244.24,105.87499995529652L244.44,76.01013396680355L244.84,85.82543787360191L245.24,102.29062706977129L246.36,80.82714323699474L246.44,92.8653761446476L246.6,80.85053746402264L247.20000000000002,110.31080533564091L248.84,118.66023679077625L248.96,64.28842601180077L249.67999999999998,43.975194811820984L250.11999999999998,86.47623901069164L250.39999999999998,62.7599501311779L251.07999999999998,92.21978035569191L251.2,58.163820028305054L251.4,89.03831136226654L251.6,71.22624662518501L251.84,99.67980679869652L252.32,86.50033612549305L252.35999999999999,115.90605725347996L253.04,105.40161830186844L253.16,90.3276329934597L253.44,90.98872546851635L254.52,102.92710852622986L254.6,100.7195634841919L254.88,-29.684685349464417L255.6,98.25139959156513L255.68,110.7316096574068L255.96,86.04330655932426L256.32,77.5233784019947L256.71999999999997,83.14757470786572L256.76,83.69541604816914L257.16,78.54068246483803L257.32,104.15189047157764L257.36,88.40390872955322L258.12,100.99609345942736L258.32,123.90364364534616L258.4,102.9552638232708L258.56,93.1032572388649L258.92,65.60458336770535L259.64,107.73541790246964L260.44,96.52019363641739L260.64,92.88241122663021L261,67.11767528951168L261.24,75.85240860283375L261.28000000000003,50.36557857692242L261.32,44.27479740977287L261.44,87.93155488371849L261.56,81.1325280815363L262.44,45.92107993364334L263.15999999999997,110.61505627632141L263.32,87.98310440778732L263.52,101.2842111364007L263.8,104.30545818805695L264.15999999999997,101.02740180492401L264.24,83.90559275448322L264.64,88.82619839906693L264.88,-16.078754097223282L264.96,92.337945073843L265.2,82.26279151439667L265.28,109.51840878278017L265.36,106.91073824465275L265.84,55.35970230400562L265.92,110.11867825686932L266,88.15319661796093L266.92,93.2957689166069L267.28000000000003,58.63053087890148L267.4,-19.277954429388046L268.04,112.72381243109703L268.44,100.96577645093203L268.48,86.88392055034637L268.56,51.86751049757004L268.8,109.14803334325552L269.04,84.26154573261738L269.32,100.58861416578293L269.52,100.71152006089687L269.8,78.1938338726759L270.04,103.45489104092121L270.56,116.32324104011059L271.59999999999997,95.63469429314137L272.4,76.01812434196472L272.52,125.57537932693958L272.68,57.10323531925678L272.71999999999997,38.427659690380096L273,112.37539228796959L273.68,69.65555769205093L274.12,85.96666526794434L274.56,91.05205830931664L274.84,62.213859379291534L275.08,111.46448288857937L276.04,109.8834230452776L278.24,88.00848130881786L278.40000000000003,118.85898162424564L278.92,85.48947741091251L279.36,69.18724213540554L279.52000000000004,61.707839861512184L279.84000000000003,95.53990390896797L279.88,83.01118132472038L280.04,90.41708540916443" style="fill: none;" fill="none"></path></g></g></g></g></g></g><g transform="translate(50, 178)" clip-path="url(#clip_1)"><clipPath id="clip_1"><rect width="280" height="22"></rect></clipPath><g><g><line x1="0" y1="0" x2="0" y2="5" style="visibility: inherit;" fill="rgb(0, 0, 0)" stroke="rgb(204, 204, 204)" stroke-width="1px"></line><line x1="20" y1="0" x2="20" y2="5" style="visibility: inherit;" fill="rgb(0, 0, 0)" stroke="rgb(204, 204, 204)" stroke-width="1px"></line><line x1="40" y1="0" x2="40" y2="5" style="visibility: inherit;" fill="rgb(0, 0, 0)" stroke="rgb(204, 204, 204)" stroke-width="1px"></line><line x1="60" y1="0" x2="60" y2="5" style="visibility: inherit;" fill="rgb(0, 0, 0)" stroke="rgb(204, 204, 204)" stroke-width="1px"></line><line x1="80" y1="0" x2="80" y2="5" style="visibility: inherit;" fill="rgb(0, 0, 0)" stroke="rgb(204, 204, 204)" stroke-width="1px"></line><line x1="100" y1="0" x2="100" y2="5" style="visibility: inherit;" fill="rgb(0, 0, 0)" stroke="rgb(204, 204, 204)" stroke-width="1px"></line><line x1="120" y1="0" x2="120" y2="5" style="visibility: inherit;" fill="rgb(0, 0, 0)" stroke="rgb(204, 204, 204)" stroke-width="1px"></line><line x1="140" y1="0" x2="140" y2="5" style="visibility: inherit;" fill="rgb(0, 0, 0)" stroke="rgb(204, 204, 204)" stroke-width="1px"></line><line x1="160" y1="0" x2="160" y2="5" style="visibility: inherit;" fill="rgb(0, 0, 0)" stroke="rgb(204, 204, 204)" stroke-width="1px"></line><line x1="180" y1="0" x2="180" y2="5" style="visibility: inherit;" fill="rgb(0, 0, 0)" stroke="rgb(204, 204, 204)" stroke-width="1px"></line><line x1="200" y1="0" x2="200" y2="5" style="visibility: inherit;" fill="rgb(0, 0, 0)" stroke="rgb(204, 204, 204)" stroke-width="1px"></line><line x1="220" y1="0" x2="220" y2="5" style="visibility: inherit;" fill="rgb(0, 0, 0)" stroke="rgb(204, 204, 204)" stroke-width="1px"></line><line x1="240" y1="0" x2="240" y2="5" style="visibility: inherit;" fill="rgb(0, 0, 0)" stroke="rgb(204, 204, 204)" stroke-width="1px"></line><line x1="260" y1="0" x2="260" y2="5" style="visibility: inherit;" fill="rgb(0, 0, 0)" stroke="rgb(204, 204, 204)" stroke-width="1px"></line><line x1="280" y1="0" x2="280" y2="5" style="visibility: inherit;" fill="rgb(0, 0, 0)" stroke="rgb(204, 204, 204)" stroke-width="1px"></line></g><g transform="translate(0, 8)"><text x="0" y="0" dx="0em" dy="0.95em" style="text-anchor: middle; visibility: hidden; font-family: &quot;Helvetica Neue&quot;, sans-serif; font-size: 12px; font-weight: 200;" fill="rgb(50, 49, 63)" stroke="none" stroke-width="1px">-500</text><text x="20" y="0" dx="0em" dy="0.95em" style="text-anchor: middle; visibility: inherit; font-family: &quot;Helvetica Neue&quot;, sans-serif; font-size: 12px; font-weight: 200;" fill="rgb(50, 49, 63)" stroke="none" stroke-width="1px">0</text><text x="40" y="0" dx="0em" dy="0.95em" style="text-anchor: middle; visibility: hidden; font-family: &quot;Helvetica Neue&quot;, sans-serif; font-size: 12px; font-weight: 200;" fill="rgb(50, 49, 63)" stroke="none" stroke-width="1px">500</text><text x="60" y="0" dx="0em" dy="0.95em" style="text-anchor: middle; visibility: inherit; font-family: &quot;Helvetica Neue&quot;, sans-serif; font-size: 12px; font-weight: 200;" fill="rgb(50, 49, 63)" stroke="none" stroke-width="1px">1k</text><text x="80" y="0" dx="0em" dy="0.95em" style="text-anchor: middle; visibility: hidden; font-family: &quot;Helvetica Neue&quot;, sans-serif; font-size: 12px; font-weight: 200;" fill="rgb(50, 49, 63)" stroke="none" stroke-width="1px">1.5k</text><text x="100" y="0" dx="0em" dy="0.95em" style="text-anchor: middle; visibility: inherit; font-family: &quot;Helvetica Neue&quot;, sans-serif; font-size: 12px; font-weight: 200;" fill="rgb(50, 49, 63)" stroke="none" stroke-width="1px">2k</text><text x="120" y="0" dx="0em" dy="0.95em" style="text-anchor: middle; visibility: hidden; font-family: &quot;Helvetica Neue&quot;, sans-serif; font-size: 12px; font-weight: 200;" fill="rgb(50, 49, 63)" stroke="none" stroke-width="1px">2.5k</text><text x="140" y="0" dx="0em" dy="0.95em" style="text-anchor: middle; visibility: inherit; font-family: &quot;Helvetica Neue&quot;, sans-serif; font-size: 12px; font-weight: 200;" fill="rgb(50, 49, 63)" stroke="none" stroke-width="1px">3k</text><text x="160" y="0" dx="0em" dy="0.95em" style="text-anchor: middle; visibility: hidden; font-family: &quot;Helvetica Neue&quot;, sans-serif; font-size: 12px; font-weight: 200;" fill="rgb(50, 49, 63)" stroke="none" stroke-width="1px">3.5k</text><text x="180" y="0" dx="0em" dy="0.95em" style="text-anchor: middle; visibility: inherit; font-family: &quot;Helvetica Neue&quot;, sans-serif; font-size: 12px; font-weight: 200;" fill="rgb(50, 49, 63)" stroke="none" stroke-width="1px">4k</text><text x="200" y="0" dx="0em" dy="0.95em" style="text-anchor: middle; visibility: hidden; font-family: &quot;Helvetica Neue&quot;, sans-serif; font-size: 12px; font-weight: 200;" fill="rgb(50, 49, 63)" stroke="none" stroke-width="1px">4.5k</text><text x="220" y="0" dx="0em" dy="0.95em" style="text-anchor: middle; visibility: inherit; font-family: &quot;Helvetica Neue&quot;, sans-serif; font-size: 12px; font-weight: 200;" fill="rgb(50, 49, 63)" stroke="none" stroke-width="1px">5k</text><text x="240" y="0" dx="0em" dy="0.95em" style="text-anchor: middle; visibility: hidden; font-family: &quot;Helvetica Neue&quot;, sans-serif; font-size: 12px; font-weight: 200;" fill="rgb(50, 49, 63)" stroke="none" stroke-width="1px">5.5k</text><text x="260" y="0" dx="0em" dy="0.95em" style="text-anchor: middle; visibility: inherit; font-family: &quot;Helvetica Neue&quot;, sans-serif; font-size: 12px; font-weight: 200;" fill="rgb(50, 49, 63)" stroke="none" stroke-width="1px">6k</text><text x="280" y="0" dx="0em" dy="0.95em" style="text-anchor: middle; visibility: hidden; font-family: &quot;Helvetica Neue&quot;, sans-serif; font-size: 12px; font-weight: 200;" fill="rgb(50, 49, 63)" stroke="none" stroke-width="1px">6.5k</text></g><line x1="0" y1="0" x2="280" y2="0" fill="rgb(0, 0, 0)" stroke="rgb(204, 204, 204)" stroke-width="1px"></line></g></g></g></g></svg>