<svg viewBox="0 0 330 200" xmlns="http://www.w3.org/2000/svg"><g><g><g><g><g><line x1="40" y1="178" x2="35" y2="178" style="visibility: inherit;" fill="rgb(0, 0, 0)" stroke="rgb(204, 204, 204)" stroke-width="1px"></line><line x1="40" y1="164.3076923076923" x2="35" y2="164.3076923076923" style="visibility: inherit;" fill="rgb(0, 0, 0)" stroke="rgb(204, 204, 204)" stroke-width="1px"></line><line x1="40" y1="150.6153846153846" x2="35" y2="150.6153846153846" style="visibility: inherit;" fill="rgb(0, 0, 0)" stroke="rgb(204, 204, 204)" stroke-width="1px"></line><line x1="40" y1="136.9230769230769" x2="35" y2="136.9230769230769" style="visibility: inherit;" fill="rgb(0, 0, 0)" stroke="rgb(204, 204, 204)" stroke-width="1px"></line><line x1="40" y1="123.23076923076924" x2="35" y2="123.23076923076924" style="visibility: inherit;" fill="rgb(0, 0, 0)" stroke="rgb(204, 204, 204)" stroke-width="1px"></line><line x1="40" y1="109.53846153846152" x2="35" y2="109.53846153846152" style="visibility: inherit;" fill="rgb(0, 0, 0)" stroke="rgb(204, 204, 204)" stroke-width="1px"></line><line x1="40" y1="95.84615384615383" x2="35" y2="95.84615384615383" style="visibility: inherit;" fill="rgb(0, 0, 0)" stroke="rgb(204, 204, 204)" stroke-width="1px"></line><line x1="40" y1="82.15384615384613" x2="35" y2="82.15384615384613" style="visibility: inherit;" fill="rgb(0, 0, 0)" stroke="rgb(204, 204, 204)" stroke-width="1px"></line><line x1="40" y1="68.46153846153844" x2="35" y2="68.46153846153844" style="visibility: inherit;" fill="rgb(0, 0, 0)" stroke="rgb(204, 204, 204)" stroke-width="1px"></line><line x1="40" y1="54.769230769230774" x2="35" y2="54.769230769230774" style="visibility: inherit;" fill="rgb(0, 0, 0)" stroke="rgb(204, 204, 204)" stroke-width="1px"></line><line x1="40" y1="41.07692307692304" x2="35" y2="41.07692307692304" style="visibility: inherit;" fill="rgb(0, 0, 0)" stroke="rgb(204, 204, 204)" stroke-width="1px"></line><line x1="40" y1="27.38461538461536" x2="35" y2="27.38461538461536" style="visibility: inherit;" fill="rgb(0, 0, 0)" stroke="rgb(204, 204, 204)" stroke-width="1px"></line><line x1="40" y1="13.69230769230765" x2="35" y2="13.69230769230765" style="visibility: inherit;" fill="rgb(0, 0, 0)" stroke="rgb(204, 204, 204)" stroke-width="1px"></line><line x1="40" y1="0" x2="35" y2="0" style="visibility: inherit;" fill="rgb(0, 0, 0)" stroke="rgb(204, 204, 204)" stroke-width="1px"></line></g><g transform="translate(30, 0)"><text x="0" y="178" dx="0em" dy="0.3em" style="text-anchor: end; visibility: hidden; font-family: &quot;Helvetica Neue&quot;, sans-serif; font-size: 12px; font-weight: 200;" fill="rgb(50, 49, 63)" stroke="none" stroke-width="1px">2</text><text x="0" y="164.3076923076923" dx="0em" dy="0.3em" style="text-anchor: end; visibility: inherit; font-family: &quot;Helvetica Neue&quot;, sans-serif; font-size: 12px; font-weight: 200;" fill="rgb(50, 49, 63)" stroke="none" stroke-width="1px">2.2</text><text x="0" y="150.6153846153846" dx="0em" dy="0.3em" style="text-anchor: end; visibility: hidden; font-family: &quot;Helvetica Neue&quot;, sans-serif; font-size: 12px; font-weight: 200;" fill="rgb(50, 49, 63)" stroke="none" stroke-width="1px">2.4</text><text x="0" y="136.9230769230769" dx="0em" dy="0.3em" style="text-anchor: end; visibility: inherit; font-family: &quot;Helvetica Neue&quot;, sans-serif; font-size: 12px; font-weight: 200;" fill="rgb(50, 49, 63)" stroke="none" stroke-width="1px">2.6</text><text x="0" y="123.23076923076924" dx="0em" dy="0.3em" style="text-anchor: end; visibility: hidden; font-family: &quot;Helvetica Neue&quot;, sans-serif; font-size: 12px; font-weight: 200;" fill="rgb(50, 49, 63)" stroke="none" stroke-width="1px">2.8</text><text x="0" y="109.53846153846152" dx="0em" dy="0.3em" style="text-anchor: end; visibility: inherit; font-family: &quot;Helvetica Neue&quot;, sans-serif; font-size: 12px; font-weight: 200;" fill="rgb(50, 49, 63)" stroke="none" stroke-width="1px">3</text><text x="0" y="95.84615384615383" dx="0em" dy="0.3em" style="text-anchor: end; visibility: hidden; font-family: &quot;Helvetica Neue&quot;, sans-serif; font-size: 12px; font-weight: 200;" fill="rgb(50, 49, 63)" stroke="none" stroke-width="1px">3.2</text><text x="0" y="82.15384615384613" dx="0em" dy="0.3em" style="text-anchor: end; visibility: inherit; font-family: &quot;Helvetica Neue&quot;, sans-serif; font-size: 12px; font-weight: 200;" fill="rgb(50, 49, 63)" stroke="none" stroke-width="1px">3.4</text><text x="0" y="68.46153846153844" dx="0em" dy="0.3em" style="text-anchor: end; visibility: hidden; font-family: &quot;Helvetica Neue&quot;, sans-serif; font-size: 12px; font-weight: 200;" fill="rgb(50, 49, 63)" stroke="none" stroke-width="1px">3.6</text><text x="0" y="54.769230769230774" dx="0em" dy="0.3em" style="text-anchor: end; visibility: inherit; font-family: &quot;Helvetica Neue&quot;, sans-serif; font-size: 12px; font-weight: 200;" fill="rgb(50, 49, 63)" stroke="none" stroke-width="1px">3.8</text><text x="0" y="41.07692307692304" dx="0em" dy="0.3em" style="text-anchor: end; visibility: hidden; font-family: &quot;Helvetica Neue&quot;, sans-serif; font-size: 12px; font-weight: 200;" fill="rgb(50, 49, 63)" stroke="none" stroke-width="1px">4</text><text x="0" y="27.38461538461536" dx="0em" dy="0.3em" style="text-anchor: end; visibility: inherit; font-family: &quot;Helvetica Neue&quot;, sans-serif; font-size: 12px; font-weight: 200;" fill="rgb(50, 49, 63)" stroke="none" stroke-width="1px">4.2</text><text x="0" y="13.69230769230765" dx="0em" dy="0.3em" style="text-anchor: end; visibility: hidden; font-family: &quot;Helvetica Neue&quot;, sans-serif; font-size: 12px; font-weight: 200;" fill="rgb(50, 49, 63)" stroke="none" stroke-width="1px">4.4</text><text x="0" y="0" dx="0em" dy="0.3em" style="text-anchor: end; visibility: hidden; font-family: &quot;Helvetica Neue&quot;, sans-serif; font-size: 12px; font-weight: 200;" fill="rgb(50, 49, 63)" stroke="none" stroke-width="1px">4.6</text></g><line x1="40" y1="0" x2="40" y2="178" fill="rgb(0, 0, 0)" stroke="rgb(204, 204, 204)" stroke-width="1px"></line></g></g><g transform="translate(40, 0)" clip-path="url(#clip_0)"><clipPath id="clip_0"><rect width="290" height="178"></rect></clipPath><g><g><g><line x1="0" y1="0" x2="0" y2="178" fill="rgb(0, 0, 0)" stroke="rgb(60, 60, 60)" stroke-width="1px" opacity="0.25"></line><line x1="20.71428571428571" y1="0" x2="20.71428571428571" y2="178" fill="rgb(0, 0, 0)" stroke="rgb(60, 60, 60)" stroke-width="1px" opacity="0.25"></line><line x1="41.42857142857142" y1="0" x2="41.42857142857142" y2="178" fill="rgb(0, 0, 0)" stroke="rgb(60, 60, 60)" stroke-width="1px" opacity="0.25"></line><line x1="62.14285714285714" y1="0" x2="62.14285714285714" y2="178" fill="rgb(0, 0, 0)" stroke="rgb(60, 60, 60)" stroke-width="1px" opacity="0.25"></line><line x1="82.85714285714285" y1="0" x2="82.85714285714285" y2="178" fill="rgb(0, 0, 0)" stroke="rgb(60, 60, 60)" stroke-width="1px" opacity="0.25"></line><line x1="103.57142857142857" y1="0" x2="103.57142857142857" y2="178" fill="rgb(0, 0, 0)" stroke="rgb(60, 60, 60)" stroke-width="1px" opacity="0.25"></line><line x1="124.28571428571428" y1="0" x2="124.28571428571428" y2="178" fill="rgb(0, 0, 0)" stroke="rgb(60, 60, 60)" stroke-width="1px" opacity="0.25"></line><line x1="145" y1="0" x2="145" y2="178" fill="rgb(0, 0, 0)" stroke="rgb(60, 60, 60)" stroke-width="1px" opacity="0.25"></line><line x1="165.7142857142857" y1="0" x2="165.7142857142857" y2="178" fill="rgb(0, 0, 0)" stroke="rgb(60, 60, 60)" stroke-width="1px" opacity="0.25"></line><line x1="186.42857142857144" y1="0" x2="186.42857142857144" y2="178" fill="rgb(0, 0, 0)" stroke="rgb(60, 60, 60)" stroke-width="1px" opacity="0.25"></line><line x1="207.14285714285714" y1="0" x2="207.14285714285714" y2="178" fill="rgb(0, 0, 0)" stroke="rgb(60, 60, 60)" stroke-width="1px" opacity="0.25"></line><line x1="227.85714285714286" y1="0" x2="227.85714285714286" y2="178" fill="rgb(0, 0, 0)" stroke="rgb(60, 60, 60)" stroke-width="1px" opacity="0.25"></line><line x1="248.57142857142856" y1="0" x2="248.57142857142856" y2="178" fill="rgb(0, 0, 0)" stroke="rgb(60, 60, 60)" stroke-width="1px" opacity="0.25"></line><line x1="269.2857142857143" y1="0" x2="269.2857142857143" y2="178" fill="rgb(0, 0, 0)" stroke="rgb(60, 60, 60)" stroke-width="1px" opacity="0.25"></line><line x1="290" y1="0" x2="290" y2="178" fill="rgb(0, 0, 0)" stroke="rgb(60, 60, 60)" stroke-width="1px" opacity="0.25"></line></g><g><line x1="0" y1="178" x2="290" y2="178" fill="rgb(0, 0, 0)" stroke="rgb(60, 60, 60)" stroke-width="1px" opacity="0.25"></line><line x1="0" y1="164.3076923076923" x2="290" y2="164.3076923076923" fill="rgb(0, 0, 0)" stroke="rgb(60, 60, 60)" stroke-width="1px" opacity="0.25"></line><line x1="0" y1="150.6153846153846" x2="290" y2="150.6153846153846" fill="rgb(0, 0, 0)" stroke="rgb(60, 60, 60)" stroke-width="1px" opacity="0.25"></line><line x1="0" y1="136.9230769230769" x2="290" y2="136.9230769230769" fill="rgb(0, 0, 0)" stroke="rgb(60, 60, 60)" stroke-width="1px" opacity="0.25"></line><line x1="0" y1="123.23076923076924" x2="290" y2="123.23076923076924" fill="rgb(0, 0, 0)" stroke="rgb(60, 60, 60)" stroke-width="1px" opacity="0.25"></line><line x1="0" y1="109.53846153846152" x2="290" y2="109.53846153846152" fill="rgb(0, 0, 0)" stroke="rgb(60, 60, 60)" stroke-width="1px" opacity="0.25"></line><line x1="0" y1="95.84615384615383" x2="290" y2="95.84615384615383" fill="rgb(0, 0, 0)" stroke="rgb(60, 60, 60)" stroke-width="1px" opacity="0.25"></line><line x1="0" y1="82.15384615384613" x2="290" y2="82.15384615384613" fill="rgb(0, 0, 0)" stroke="rgb(60, 60, 60)" stroke-width="1px" opacity="0.25"></line><line x1="0" y1="68.46153846153844" x2="290" y2="68.46153846153844" fill="rgb(0, 0, 0)" stroke="rgb(60, 60, 60)" stroke-width="1px" opacity="0.25"></line><line x1="0" y1="54.769230769230774" x2="290" y2="54.769230769230774" fill="rgb(0, 0, 0)" stroke="rgb(60, 60, 60)" stroke-width="1px" opacity="0.25"></line><line x1="0" y1="41.07692307692304" x2="290" y2="41.07692307692304" fill="rgb(0, 0, 0)" stroke="rgb(60, 60, 60)" stroke-width="1px" opacity="0.25"></line><line x1="0" y1="27.38461538461536" x2="290" y2="27.38461538461536" fill="rgb(0, 0, 0)" stroke="rgb(60, 60, 60)" stroke-width="1px" opacity="0.25"></line><line x1="0" y1="13.69230769230765" x2="290" y2="13.69230769230765" fill="rgb(0, 0, 0)" stroke="rgb(60, 60, 60)" stroke-width="1px" opacity="0.25"></line><line x1="0" y1="0" x2="290" y2="0" fill="rgb(0, 0, 0)" stroke="rgb(60, 60, 60)" stroke-width="1px" opacity="0.25"></line></g></g></g><g><g><line x1="0" y1="314.92307692307696" x2="290" y2="314.92307692307696" fill="rgb(0, 0, 0)" stroke="rgb(153, 153, 153)" stroke-width="1.5px"></line></g></g><g><g><line x1="20.71428571428571" y1="0" x2="20.71428571428571" y2="178" fill="rgb(0, 0, 0)" stroke="rgb(153, 153, 153)" stroke-width="1.5px"></line></g></g><g><g><g><g><g><path stroke="rgb(204, 51, 17)" stroke-width="2px" d="M21.75,186.65489045278582L22.412857142857145,169.52086493269L22.495714285714286,160.0945510844676L22.62,152.86590799629306L23.075714285714284,144.1020556858869L23.697142857142858,133.45677089171255L23.821428571428573,124.83410756720522L24.650000000000002,120.2270942399709L24.981428571428573,114.26179732119591L25.147142857142857,107.18758300089227L25.975714285714282,99.40891813399652L27.177142857142854,105.89038100998712L27.30142857142857,107.69361015811516L27.674285714285716,120.29510576110688L28.130000000000003,121.36271171069652L28.337142857142858,128.25380070237003L28.42,129.3692709199898L28.627142857142857,131.27291477492125L30.242857142857144,136.37586467005886L30.45,136.0341083348548L31.07142857142857,136.0976791747658L31.32,135.77891061696008L31.527142857142856,133.76594357214836L31.817142857142855,130.52959775909406L32.065714285714286,127.85469347088375L32.85285714285714,126.76119993716642L33.51571428571429,127.76456687849466L33.598571428571425,129.45230968015596L33.93,129.55450029024004L34.427142857142854,132.51001991638555L34.8,134.92214288526705L35.13142857142857,134.8531500609499L35.794285714285714,136.85737049451433L35.96,137.61452303067233L38.19714285714285,134.00408236430445L38.23857142857143,135.90455277991356L38.94285714285714,135.79064156764582L39.067142857142855,133.41670933852342L39.191428571428574,130.26766838866988L39.81285714285714,129.7998506884927L39.93714285714285,130.6417009775008L39.97857142857143,129.83827383546418L40.392857142857146,133.7118559153131L41.097142857142856,130.8150016202788L41.18,124.3776173059695L42.05,122.5518913280589L42.754285714285714,122.64965437788354L42.96142857142857,123.42886222906196L44.08,118.54282774509525L44.494285714285716,119.99701971531832L44.74285714285714,120.58609886890213L45.03285714285714,122.13994375310739L45.07428571428571,123.29118444063005L45.69571428571429,120.5241721550181L46.441428571428574,121.25514850448317L46.52428571428571,120.32885604192015L47.02142857142857,118.81915163145192L47.31142857142857,120.36944016551789L47.35285714285714,119.27364780821813L47.43571428571428,118.3832386425827L47.56,118.6492130119074L47.642857142857146,117.83103509775634L48.14,115.98763043159138L48.55428571428571,114.5995444243794L49.25857142857142,114.7212671618996L50.33571428571429,113.91256355082716L50.501428571428576,109.4168819202997L50.667142857142856,112.547700103462L50.998571428571424,110.5209947896327L51.37142857142857,113.06483585103061L51.537142857142854,113.2038586512899L51.91,111.10767698219989L52.075714285714284,112.57096823274452L52.44857142857143,114.01079719356852L52.614285714285714,111.8237159609335L52.69714285714286,111.16254404028305L52.78,110.23699022962384L53.07,113.78266558245804L53.277142857142856,117.12552356283209L53.36,119.87084016302612L53.56714285714286,120.76199684152343L53.65,121.67430757979561L53.815714285714286,123.56607779175863L53.98142857142857,123.04676362691998L54.23,123.40199586080743L54.27142857142857,124.79547405906506L55.22428571428571,120.92125615979369L55.39,123.69367792777935L56.75714285714285,125.30697934226058L57.04714285714285,126.32041125209162L57.29571428571428,124.02457610437548L57.87571428571428,125.81263406594022L58.041428571428575,125.92017586300737L58.331428571428575,128.8260020687809L58.41428571428571,130.37828998298204L58.66285714285714,132.1597745333782L58.745714285714286,133.96439454308802L59.325714285714284,134.11037683595197L59.36714285714286,134.17252213142376L59.78142857142858,135.85015162714333L59.90571428571429,136.62879747037584L60.278571428571425,137.12824364267408L60.44428571428572,138.00437631999148L60.61,141.3812340502394L60.98285714285715,140.00602039021376L61.02428571428572,142.368442521325L61.27285714285715,140.57000002350446L61.31428571428572,140.3688111504859L61.521428571428565,141.57941446924514L62.26714285714286,141.29661269392165L62.39142857142857,141.58254469177191L62.76428571428572,141.10078227278066L64.00714285714287,142.36768861835236L64.54571428571428,143.4631621689898L64.7942857142857,143.51266995467267L64.91857142857143,146.7801089739542L65.00142857142858,148.76912886376903L65.16714285714286,146.70746871591996L65.41571428571429,144.474313457501L65.62285714285714,143.24007260030308L66.03714285714285,142.08838664772227L66.28571428571428,142.04878907469174L66.49285714285715,139.39027975844732L66.90714285714286,140.61067112577348L67.11428571428571,141.62998037775182L68.64714285714285,139.48077539108266L68.81285714285714,141.14027561379493L68.85428571428571,138.02844509317887L68.89571428571429,140.28183345963947L69.64142857142856,142.15014689045083L70.17999999999999,140.09711919181933L70.42857142857143,140.1173223834387L70.71857142857142,140.19119447084034L71.79571428571428,137.63147246113238L72.29285714285714,132.9641352121455L72.74857142857142,136.054250084761L72.87285714285714,135.98459125196763L72.99714285714286,136.873199302031L73.82571428571428,137.47304040999268L74.07428571428572,131.65128983165957L74.36428571428571,132.46046504840604L74.61285714285714,130.67336393236621L75.27571428571429,128.35933852465678L75.4,127.24626610547364L75.85571428571428,129.0464605119792L75.98,130.77193898026385L76.10428571428572,129.78058123016734L76.14571428571429,132.6390833003354L78.13428571428571,133.5685022181131L78.25857142857143,133.08398986569057L78.38285714285715,133.41984283476773L78.4242857142857,135.41934352977643L79.33571428571429,136.38912958007674L79.83285714285715,131.50592330768376L79.91571428571429,131.07263130513974L80.08142857142857,129.77128027683648L80.24714285714285,128.99448726314057L80.41285714285715,128.98480611886157L81.44857142857143,129.72241609015583L81.49000000000001,127.32303873075924L81.94571428571429,126.57714905977782L82.27714285714285,125.8152288979185L82.44285714285715,120.00676960012458L82.52571428571429,122.55357159907572L83.85142857142857,121.7498799378878L84.01714285714286,122.09582261149109L85.05285714285714,122.48660269998986L85.7157142857143,122.88451079243325L85.75714285714285,121.30721011182223L86.37857142857143,124.10969181510106L86.54428571428572,124.57519089088288L87.20714285714286,126.4589788993211L87.24857142857144,120.52929209769974L87.78714285714285,121.20598038667335L88.16,118.67004988327567L88.36714285714285,120.11521037965389L88.57428571428572,123.52708644432727L88.69857142857144,124.32265805814706L88.90571428571428,122.06256089476341L89.03,121.39073003468206L89.52714285714286,123.49105228390252L89.85857142857142,120.12769601105268L90.14857142857142,119.74863120375697L90.43857142857142,119.53609260735732L90.81142857142858,112.94757485881395L90.97714285714287,114.45084914054254L91.06,115.89241505152552L91.14285714285714,117.33812131161721L91.26714285714286,113.78415331309041L91.55714285714286,113.09702366242995L91.93,108.5689192513835L92.34428571428572,106.83215551490454L92.51,105.76558034062235L92.59285714285714,106.64120628331993L92.71714285714286,103.06402570453432L92.92428571428572,103.28460541715242L93.04857142857142,101.02973546495696L93.09,101.63968001081611L93.91857142857143,101.23018181832514L94.29142857142857,101.15123965508502L94.54,97.58398544239991L94.83,100.00795071561059L94.87142857142857,98.5951565244053L95.24428571428571,96.3863298610667L95.5342857142857,97.82187407401979L96.4042857142857,95.23784456965849L96.57000000000001,96.66672410182765L96.9842857142857,94.3786528829234L97.15,94.74409998557668L97.52285714285715,95.88228148668895L98.06142857142856,97.09588192827438L98.18571428571428,93.39252403075575L98.4342857142857,94.25767973446519L98.51714285714284,95.32130435913481L99.92571428571429,99.37117934073203L100.17428571428572,97.84869979648737L100.87857142857143,100.58518422785141L100.96142857142857,102.32963167942091L101.29285714285714,102.74407108999303L101.41714285714285,103.19641155360094L101.5,104.01767679011381L102.24571428571429,102.96362228545516L102.8257142857143,102.46175743992517L102.90857142857143,100.74104107089845L103.65428571428572,105.99708225425964L103.82,103.90322963289407L104.15142857142857,105.63563068796797L104.8557142857143,108.94686659627192L105.10428571428571,110.06961291401056L106.09857142857143,108.99892115034464L106.63714285714286,106.18709896649729L106.76142857142858,109.81023284899544L106.80285714285714,107.05691334101166L106.88571428571429,108.89121043034969L106.96857142857144,112.35540145348499L107.13428571428572,111.01594468167848L107.3,111.38671388347699L107.59,108.86804189161084L108.21142857142858,109.67575883142372L109.62,109.04330483440417L109.78571428571428,109.64117726354884L110.07571428571428,107.38667498788999L110.44857142857143,107.12075252866028L110.94571428571429,109.25853824401169L111.36,104.36826436042874L111.44285714285714,99.73674373978687L111.52571428571429,99.93026082885041L111.56714285714285,99.25957290040563L111.73285714285714,100.9659533779054L111.85714285714286,98.66488671768306L112.18857142857142,97.44459141084673L112.35428571428572,99.62811989270178L113.18285714285715,99.96579961957408L113.39,98.71549363673043L113.43142857142857,100.80976690561111L113.5142857142857,103.54637548862915L113.63857142857142,103.64023204360024L113.80428571428571,104.27767842007714L113.84571428571428,101.74916625205873L114.13571428571429,101.96845710432943L114.26,96.70308416558466L114.46714285714286,94.89803653431808L115.25428571428571,93.60107970728005L115.66857142857143,95.23107535432194L115.91714285714285,96.1929078334711L116.16571428571429,96.83029647768953L116.33142857142857,96.25600733077547L116.82857142857142,95.13858646488575L116.87,97.53833985350526L117.90571428571428,91.09389019573987L118.27857142857142,93.65286419589515L118.98285714285716,95.04013488407463L119.72857142857143,94.07962029651054L119.77,89.55712777838373L119.85285714285715,84.98278725324349L120.43285714285713,80.12143534448013L121.67571428571429,77.77521007381283L122.00714285714285,76.95851746898417L122.29714285714286,78.00846918573266L122.38,77.53492525856134L122.46285714285713,75.38055976744498L122.67,80.08163688676483L123.70571428571428,76.26901460775342L123.74714285714286,79.63758913130309L124.16142857142857,80.54934166617595L124.24428571428572,80.66996483540682L124.45142857142858,86.30457321103319L125.03142857142858,84.17563685987724L125.28,83.05940974046956L125.65285714285714,81.66434496723308L126.27428571428572,87.95967296600162L126.44,90.0810915518217L126.52285714285713,90.52454091396802L127.06142857142858,92.31327166489525L127.55857142857143,89.06547566186238L128.0557142857143,89.11899659245618L128.47,91.20290437321675L128.71857142857144,92.37439742092141L129.42285714285714,93.60731654926141L129.67142857142858,92.1956843458671L129.71285714285713,94.55694937615901L130.04428571428573,90.32425210023649L130.29285714285714,90.27807673718132L130.54142857142855,92.90516361822733L130.74857142857144,92.65810563172687L131.70142857142858,93.4759896587692L131.99142857142857,89.47306730207939L132.19857142857143,85.8151866408359L132.73714285714286,83.64740138724831L133.02714285714288,82.82757959919536L133.64857142857142,85.67032669151429L134.1457142857143,88.81761880409195L134.27,89.42324667204261L134.85,87.51733158596763L134.89142857142858,86.98747232560643L134.9742857142857,85.97630428085888L136.29999999999998,81.07664627207839L136.34142857142857,83.57694618725246L136.38285714285715,81.11752753602211L136.67285714285714,82.5546620973949L137.12857142857143,84.0063956554209L137.75,82.87293867630866L137.95714285714286,84.90405207985361L139.73857142857145,83.43316211574823L140.11142857142858,83.52452387968978L140.4842857142857,83.11148738678074L140.73285714285714,84.83222881999673L140.89857142857144,87.56343773477997L141.60285714285715,86.08613221528724L141.68571428571428,85.70197000745719L141.72714285714287,85.52334779745155L142.2242857142857,80.91143949555693L143.67428571428573,76.88689840317387L144.00571428571428,79.83807945327914L144.95857142857142,78.50171524156265L145.33142857142857,74.32830323638542L145.4142857142857,71.48038163770626L145.49714285714285,72.96747219408688L145.66285714285715,73.7264396928559L145.70428571428573,72.55832251394092L146.16,71.91972132265398L146.28428571428572,72.35589439195739L146.6157142857143,68.16048277913656L146.74,72.79159911876695L147.73428571428573,73.8533678994242L147.9,75.06995697917826L147.9828571428571,78.8394004311177L148.6042857142857,73.37514120413672L149.14285714285714,73.39277976619961L150.09571428571428,72.84194984751008L150.71714285714285,73.39531040296757L151.04857142857145,77.14166466777202L151.25571428571428,79.9275665896718L151.46285714285713,81.0168701029864L151.62857142857143,79.12492010830626L151.71142857142857,76.6868001072147L152.37428571428572,74.72361872742236L153.12,76.81042309167783L153.16142857142856,73.1269250758183L153.45142857142858,73.42523340624821L153.5757142857143,73.93763683074702L154.57000000000002,75.50854538422239L154.69428571428574,73.94843954670446L154.98428571428573,64.80985249262669L155.10857142857142,59.254059977588454L155.15,59.46298595077927L155.23285714285714,56.22177827201355L155.27428571428572,60.38693562609325L156.31,63.49139585406681L156.68285714285713,63.98720126296543L157.67714285714285,68.26925809731901L158.00857142857143,68.14607994322446L158.5885714285714,67.52908711793654L158.63000000000002,69.23669397085507L158.83714285714285,68.7825803595207L159.3342857142857,65.56537658773875L160.5357142857143,67.04952555417177L160.6185714285714,70.77893822989869L160.70142857142858,72.48542383752475L161.03285714285713,70.2408594205026L161.73714285714286,71.70782666655467L161.9442857142857,74.38089604368675L162.8557142857143,77.48939780334472L162.98000000000002,76.26483196912929L163.18714285714287,77.4416319252433L163.64285714285714,80.77608788038823L163.7257142857143,82.71840233081492L164.0157142857143,83.06738985076609L164.2642857142857,82.49215866162194L164.5542857142857,79.84106961259896L164.80285714285714,82.73719278326588L164.92714285714285,87.15087023355605L165.6314285714286,86.4166663515322L166.12857142857143,87.02405499596071L166.25285714285715,87.61078493248401L166.54285714285714,88.43911878650235L167.2057142857143,87.63443643951715L167.28857142857143,86.94898602701004L167.53714285714287,90.52975625626594L167.70285714285714,86.5841340041317L168.36571428571426,87.54697613277742L169.07,85.02349840774103L169.89857142857142,81.7381027660095L170.6442857142857,85.26842031450965L170.72714285714287,83.14684291676669L170.81,78.29594637002509L170.93428571428572,77.55836588322107L171.05857142857144,79.1931678655908L171.76285714285714,78.9157144574361L172.21857142857144,83.40208681392203L172.79857142857142,83.91025643149696L174.04142857142855,85.58085172472674L174.12428571428572,85.49062398138219L175.11857142857144,80.24239723600597L175.28428571428572,80.95735914634001L175.36714285714288,79.44413203648465L175.6157142857143,80.37662486188327L175.74,81.35984586154359L175.82285714285715,80.6221293793355L176.19571428571427,82.20190620924153L176.48571428571427,80.95611050667858L177.02428571428572,79.22866903331577L177.35571428571427,81.44279484276578L177.89428571428573,84.68823023793382L177.97714285714287,84.51134290141272L178.10142857142856,84.56503084685312L178.59857142857143,84.74008730930325L178.7642857142857,83.5188008575716L178.97142857142856,81.37290716323541L179.05428571428573,76.90447751674041L179.46857142857144,72.70959275176507L179.6342857142857,65.95055533626972L180.8357142857143,66.16764426552069L181.04285714285714,53.445258410585694L181.33285714285716,47.34777275681475L182.41,44.760514969062484L183.15571428571428,47.89537101222942L183.48714285714286,49.96094170909643L183.77714285714285,48.730647446386314L183.94285714285712,50.825681422719526L184.39857142857144,43.45134891008021L184.64714285714285,42.71028188457919L184.8957142857143,45.391728987343726L185.80714285714285,46.423107316562124L186.26285714285711,47.70635185209812L186.47,42.890558976335825L186.84285714285713,46.93721039221427L186.8842857142857,46.8022920477089L187.38142857142856,48.47990463989328L187.83714285714285,51.643187175228434L187.96142857142857,52.17958530487154L188.37571428571428,50.711078717089535L190.32285714285715,47.912828269537755L190.53,52.33482451939315L190.57142857142858,47.2222607015712L190.9857142857143,53.355664532788936L194.01000000000002,53.56526174774453L194.46571428571428,54.52055821488213L194.50714285714287,56.53005558924576L194.59,58.9074357504513L194.67285714285714,59.59529477405735L194.79714285714286,59.254627698814545L194.8385714285714,60.65892978059341L195.8742857142857,63.44261224586954L196.08142857142857,63.799808297688585L196.2057142857143,64.29777100752358L196.53714285714287,64.66392047473329L196.99285714285713,57.65887498709141L197.3657142857143,58.990025467556094L197.49,61.36553751545031L197.53142857142856,60.618244160887244L198.15285714285713,62.1699334580243L198.8157142857143,63.34266167467895L199.0642857142857,60.567825010127336L199.23000000000002,64.57265641078023L199.60285714285715,64.32765399959133L199.6857142857143,62.82439554856775L200.0585714285714,66.66050642289534L200.2242857142857,63.26317020885401L200.47285714285715,65.89391239023998L200.67999999999998,66.52700446892989L201.75714285714287,62.21499511990322L202.13,64.69178166838672L202.7514285714286,63.25474957607746L203.04142857142858,63.32486021456123L203.29,66.72434004157817L203.4557142857143,66.52161386749557L203.49714285714288,70.61451879826332L204.28428571428572,71.83452943683427L204.40857142857143,71.62725564613712L204.65714285714287,74.36052061958026L205.89999999999998,68.55424577391057L206.14857142857142,70.38810540431794L206.76999999999998,72.14286418015716L206.85285714285715,71.35809147211702L207.55714285714288,68.70661163063573L207.59857142857143,73.42450957755938L208.38571428571427,72.19022898846842L208.42714285714285,73.7594004372741L208.55142857142857,74.35552667955399L208.9242857142857,76.44381476924279L209.38,79.37684657523079L210.41571428571427,78.88199278589188L210.54,76.50084100436572L210.99571428571429,75.75943542765167L211.12,75.40095941118877L211.20285714285714,74.19097324905883L211.28571428571428,74.65361331157726L211.78285714285715,66.39009233112826L212.48714285714289,61.27131924589345L213.35714285714286,56.54376243509415L213.64714285714288,55.29956145125193L213.97857142857143,55.640472579625055L214.14428571428573,60.01295458527568L214.43428571428572,57.683885469061565L214.47571428571428,63.20673402239156L214.5171428571429,59.08479652495862L214.93142857142857,57.478706501076076L216.00857142857143,53.89407399407642L216.21571428571428,43.552612071002216L216.87857142857143,51.36150562225849L217.33428571428573,53.08809643838883L217.5,52.07987803443467L217.54142857142855,50.76036188134668L217.87285714285716,49.426401029508185L217.99714285714285,43.03460187773658L218.12142857142857,43.95519929503209L218.24571428571429,45.4413159713834L218.61857142857144,50.5324175815073L218.78428571428572,49.21238237920713L219.0742857142857,51.97754046300963L219.1157142857143,53.85753464790467L219.36428571428573,53.949835977423064L219.61285714285717,56.16958197949832L219.69571428571427,54.1774034408931L219.82,56.84251606918856L221.27,58.42947109012722L221.76714285714286,61.65969171976204L222.55428571428573,59.817200828842914L222.63714285714283,50.11519895200094L223.42428571428573,53.20604275255887L223.50714285714284,57.64056141676731L224.3357142857143,57.31129468506303L225.33,63.20873278915268L225.45428571428573,66.6765550193888L225.99285714285713,67.30137377518656L226.32428571428574,65.1253184483341L226.69714285714286,65.73864699276585L226.82142857142858,71.26183791113375L226.90428571428572,71.91011708686455L226.9457142857143,75.48340996316519L227.5257142857143,73.4428447555898L228.76857142857142,73.76988436995994L229.01714285714286,74.68176708557596L229.14142857142858,79.63736978169781L229.43142857142857,79.84617836195959L229.97,73.13048180747873L230.05285714285714,67.13328544093228L230.09428571428572,65.17521726523806L230.38428571428574,66.37829476678574L231.13000000000002,66.75928540912827L232.08285714285714,69.47208521115756L232.29000000000002,68.47825080473321L233.1185714285714,68.8068868215984L233.20142857142858,63.82878524996548L233.45000000000002,58.34716937253013L234.52714285714285,64.59000323679867L234.7342857142857,69.32417393213018L235.27285714285713,71.8228565550161L235.43857142857144,73.6483619751581L236.1842857142857,75.04199615642197L236.5157142857143,76.0595325820451L237.46857142857144,69.77282907060273L237.59285714285716,67.27101152550443L237.6342857142857,70.83154983533882L237.79999999999998,71.32175796378651L237.8414285714286,70.87151401044711L238.91857142857143,74.9389922210255L239.8714285714286,78.57831676680804L240.41,76.61974827354624L241.07285714285715,73.97358629863878L241.52857142857144,74.14890796674257L242.1914285714286,75.54932242848447L242.77142857142857,77.35914867862742L242.81285714285715,71.96316282178095L242.93714285714287,68.67764744992982L243.64142857142858,66.11495234366203L244.63571428571427,68.61033871511778L244.71857142857144,69.68627053237984L245.29857142857142,66.6727320126839L246.08571428571426,70.72564032826658L246.12714285714287,65.830696857729L246.20999999999998,66.35546294627777L246.41714285714286,71.87024127111633L247.57714285714286,74.05469931524483L247.95,75.04506087022284L248.24,72.48896733354768L248.40571428571428,72.95597156703431L248.65428571428572,74.75729799137834L248.90285714285716,71.17990271972991L249.10999999999999,68.51210990727495L249.2342857142857,72.08952288467962L249.31714285714287,69.5342691702062L249.93857142857144,75.03988780854563L250.31142857142856,73.49445787981921L250.64285714285717,71.86289528558864L251.34714285714284,73.27051298694516L251.55428571428573,78.92946708065519L251.63714285714283,78.97481850002808L252.1342857142857,77.44028508090672L252.21714285714285,76.39836898004737L252.46571428571428,73.05052476680196L252.96285714285716,73.6956263636451L253.17,71.86059597963306L253.58428571428573,72.24204436134222L253.99857142857144,72.05993831621929L255.15857142857143,74.27451739264076L255.24142857142857,70.6672403910778L255.40714285714284,70.39360198731104L256.02857142857147,69.6357409027757L257.72714285714284,67.52777690156475L257.8514285714286,64.91712175756813L258.59714285714284,68.94297405352002L259.05285714285714,68.10536170868478L259.34285714285716,62.75475721421844L260.04714285714283,63.09833431281672L260.1714285714286,57.24908984403575L260.37857142857143,61.51950682456791L260.5857142857143,60.776082186918046L260.8342857142857,62.91939498440556L261.33142857142855,60.849147987791554L261.37285714285713,60.371917783923706L262.07714285714286,63.55011933397637L262.20142857142855,64.76314787370866L262.49142857142857,63.561647347227336L263.61,64.09852009759565L263.6928571428571,66.55684953795017L263.98285714285714,69.52206479135907L264.7285714285714,70.30491945973884L264.81142857142856,66.06433382902512L265.1014285714286,59.90665259922555L265.4742857142857,54.23696469602645L265.8885714285714,58.79446387286208L265.93,55.78148195454719L266.3442857142857,60.967020253458955L266.51,62.58154504292929L266.5514285714286,62.83286652138149L267.3385714285714,64.85767516188876L267.54571428571427,67.39460353313703L267.62857142857143,68.5291062354685L267.7942857142857,72.45236060150154L268.16714285714284,67.94647545492018L268.91285714285715,68.60411163163317L269.74142857142857,66.82040622320093L269.9485714285714,63.99566646467976L270.32142857142856,69.28817958194307L270.57,72.03158946936061L270.6114285714286,64.06031386788038L270.65285714285716,69.34821414997162L270.77714285714285,69.94198028080018L270.9014285714286,65.82250954582011L271.8128571428571,73.15797825894504L272.55857142857144,72.67825152215384L272.7242857142857,70.77442197494398L272.93142857142857,73.35021034495718L273.2214285714286,74.65517437821875L273.5942857142857,70.66041626484486L273.6771428571429,72.25324500756798L274.0914285714286,76.71178147859189L274.34,80.71768501434089L274.42285714285714,77.63720971848647L274.6714285714286,74.91363239601093L274.7542857142857,74.6236601261517L274.83714285714285,74.76695789040478L275.3342857142857,65.42938843264757L275.41714285714284,68.61069805896919L275.5,70.7369733666018L276.45285714285717,72.11198953085758L276.8257142857143,73.66245760667809L276.95,76.52774984174322L277.61285714285714,74.51276065578178L278.02714285714285,76.26019672492721L278.06857142857143,74.549767081149L278.1514285714286,64.70866147062216L278.4,63.199016824712714L278.6485714285714,67.82423648557418L278.93857142857144,62.11032234030233L279.1457142857143,61.57280848839501L279.43571428571425,62.27786585563814L279.6842857142857,64.0966144567848L280.22285714285715,63.647758177751044L281.3,57.78663479179255L282.12857142857143,51.412356205139886L282.2528571428571,50.75553041548332L282.41857142857145,40.65012412633456L282.46,42.713541875724985L282.75,45.45334987828937L283.45428571428573,53.40107004653835L283.90999999999997,53.908923622854104L284.36571428571426,54.03252301159269L284.6557142857143,56.858064299572305L284.9042857142857,58.85013787406926L285.8985714285714,62.244486672212815L288.1771428571428,66.13032785761904L288.34285714285716,62.74340662985395L288.88142857142856,58.57718228589903L289.33714285714285,63.082577393668544L289.5028571428572,54.81578257465908L289.8342857142857,56.90886678329662L289.87571428571425,61.60363359787661L290.0414285714286,61.72354478684123" style="fill: none;" fill="none"></path></g></g></g></g><g opacity="0.2"><g><g><g><path stroke="rgb(204, 51, 17)" stroke-width="2px" d="M21.75,178.02649142191962L22.412857142857145,137.5312109360328L22.495714285714286,134.28522010949942L22.62,127.06110891929039L23.075714285714284,105.85522350898154L23.697142857142858,78.9234204659095L23.821428571428573,74.41527579380914L24.650000000000002,90.10128252322856L24.981428571428573,71.31249860616829L25.147142857142857,51.79036096426155L25.975714285714282,33.80772913419281L27.177142857142854,164.28168729635385L27.30142857142857,124.92989606123703L27.674285714285716,247.36141843979175L28.130000000000003,132.66297553135797L28.337142857142858,204.49244207602283L28.42,142.22006203578067L28.627142857142857,154.03495872937717L30.242857142857144,199.51988139519324L30.45,131.66913098555344L31.07142857142857,136.93379101386438L31.32,131.47056773992685L31.527142857142856,105.86142606001633L31.817142857142855,84.59428229698767L32.065714285714286,89.04219693403977L32.85285714285714,110.56446141463059L33.51571428571429,142.9157923918504L33.598571428571425,155.40281710257898L33.93,131.1526543543889L34.427142857142854,179.47381589962885L34.8,173.83002493931696L35.13142857142857,133.7244768509498L35.794285714285714,170.0835698567904L35.96,150.32491915042584L38.19714285714285,72.67467674842246L38.23857142857143,168.54946679335373L38.94285714285714,133.8132222982553L39.067142857142855,91.79423618316649L39.191428571428574,74.53234078333927L39.81285714285714,121.44571095246533L39.93714285714285,145.80265551346997L39.97857142857143,115.2531166443458L40.392857142857146,204.56649727087756L41.097142857142856,77.44442217166606L41.18,4.966911462637057L42.05,88.4658820078923L42.754285714285714,124.48610353469849L42.96142857142857,138.15151500701904L44.08,25.712388038635225L44.494285714285716,147.77088818183313L44.74285714285714,131.89330423795258L45.03285714285714,152.10732012528638L45.07428571428571,145.59426612120407L45.69571428571429,66.68836622971753L46.441428571428574,135.53532794805673L46.52428571428571,102.16273062045757L47.02142857142857,89.10193729400633L47.31142857142857,150.99281963935266L47.35285714285714,97.55565525935245L47.43571428571428,100.6796190555279L47.56,123.9535002708435L47.642857142857146,101.46713084440964L48.14,79.01740543658916L48.55428571428571,86.68803501129149L49.25857142857142,117.17496075996985L50.33571428571429,97.57194511707011L50.501428571428576,18.371799468994112L50.667142857142856,176.08874918864325L50.998571428571424,69.30376980854913L51.37142857142857,164.90040808457596L51.537142857142854,116.04199952345627L51.91,68.23812257326564L52.075714285714284,142.54788318047156L52.44857142857143,143.55476940595184L52.614285714285714,66.87760932628923L52.69714285714286,97.55500235924353L52.78,91.16151068760797L53.07,186.95604298664972L53.277142857142856,186.2012659769792L53.36,176.66818171281082L53.56714285714286,139.22036145283624L53.65,140.59174548662625L53.815714285714286,162.8347463974586L53.98142857142857,112.25617456436156L54.23,130.7902947939359L54.27142857142857,153.80430544339694L55.22428571428571,40.19890301044168L55.39,181.50746099765485L56.75714285714285,158.97622101123517L57.04714285714285,147.48658282940204L57.29571428571428,76.03982184483453L57.87571428571428,163.21031086261456L58.041428571428575,128.1709248469426L58.331428571428575,189.68055433493393L58.41428571428571,162.90625528188852L58.66285714285714,169.51195581142719L58.745714285714286,171.82238974938025L59.325714285714284,137.17444999401386L59.36714285714286,135.47756261091965L59.78142857142858,171.09687082584088L59.90571428571429,152.99546014345609L60.278571428571425,147.6308574309716L60.44428571428572,156.4357866874108L60.61,212.4490990271935L60.98285714285715,111.052944953625L61.02428571428572,192.12365757502042L61.27285714285715,102.67977853921742L61.31428571428572,136.12869988954984L61.521428571428565,167.10122009424063L62.26714285714286,135.33283097927387L62.39142857142857,147.6140615756695L62.76428571428572,130.935597713177L64.00714285714287,169.10637426376343L64.54571428571428,166.5894280213576L64.7942857142857,144.55806468083307L64.91857142857143,215.7902337220999L65.00142857142858,190.787432212096L65.16714285714286,103.14562276693489L65.41571428571429,97.27954380328838L65.62285714285714,117.1511135834914L66.03714285714285,117.74006212674654L66.28571428571428,141.2114945925199L66.49285714285715,83.1666182738084L66.90714285714286,166.42424429379977L67.11428571428571,163.19351500731247L68.64714285714285,94.00774709994975L68.81285714285714,176.25688728919397L68.85428571428571,72.1705562518193L68.89571428571429,187.97783165711624L69.64142857142856,181.700213432312L70.17999999999999,96.63193218524638L70.42857142857143,140.54509577384363L70.71857142857142,141.7554909632756L71.79571428571428,83.42209808643047L72.29285714285714,34.11070742973911L72.74857142857142,201.50826419316806L72.87285714285714,134.50896897682776L72.99714285714286,155.69862981942984L73.82571428571428,150.1818524140578L74.07428571428572,8.29683259817267L74.36428571428571,149.60694122314453L74.61285714285714,92.80198750129111L75.27571428571429,79.31844135431142L75.4,103.65557039701021L75.85571428571428,167.20243593362662L75.98,167.34635144013626L76.10428571428572,108.76595012958232L76.14571428571429,193.23625648938693L78.13428571428571,153.2721592096182L78.25857142857143,122.81185546288123L78.38285714285715,140.5405744405893L78.4242857142857,177.81444578904373L79.33571428571429,156.95219802856445L79.83285714285715,27.95973550356348L79.91571428571429,121.88452511567334L80.08142857142857,102.1746950149536L80.24714285714285,112.5211703960712L80.41285714285715,128.77949303847092L81.44857142857143,145.36578372808603L81.49000000000001,76.43508757077728L81.94571428571429,110.75726281679593L82.27714285714285,109.65490627288817L82.44285714285715,-3.1938175788292824L82.52571428571429,176.57396822709305L83.85142857142857,104.70231617414034L84.01714285714286,129.43397643015933L85.05285714285714,130.7760289265559L85.7157142857143,131.3253137881939L85.75714285714285,87.84735708970288L86.37857142857143,183.56087264647851L86.54428571428572,134.45035486954907L87.20714285714286,166.42261204352747L87.24857142857144,-5.2681465148926065L87.78714285714285,135.56204788501447L88.16,64.86901110869186L88.36714285714285,150.77545287058902L88.57428571428572,195.91376719107996L88.69857142857144,141.20179902590237L88.90571428571428,74.11091008553137L89.03,107.13657261775089L89.52714285714286,168.0538503206693L89.85857142857142,48.766176627232454L90.14857142857142,111.70579609504111L90.43857142857142,115.02649501653818L90.81142857142858,-26.847474465003415L90.97714285714287,146.34758226688092L91.06,146.48007202148438L91.14285714285714,148.013881279872L91.26714285714286,38.37359017592206L91.55714285714286,98.51692008972167L91.93,12.487047562232362L92.34428571428572,69.97950509878304L92.51,83.13361417330228L92.59285714285714,125.22148124988261L92.71714285714286,27.15787623478812L92.92428571428572,107.96523343599758L93.04857142857142,53.18188696641187L93.09,114.58263719998872L93.91857142857143,92.54063158768872L94.29142857142857,99.4760793172396L94.54,21.886164885300815L94.83,151.44518147982083L94.87142857142857,68.61513974116397L95.24428571428571,49.51402473449704L95.5342857142857,128.28488856095532L96.4042857142857,40.40316280951865L96.57000000000001,126.98852274968073L96.9842857142857,45.82406183389514L97.15,102.49918636908896L97.52285714285715,120.03549568469707L98.06142857142856,122.8496257341825L98.18571428571428,14.803569793701143L98.4342857142857,112.61719567959123L98.51714285714284,117.89259591469397L99.92571428571429,185.31421140524057L100.17428571428572,65.53984964810883L100.87857142857143,158.65680595544669L100.96142857142857,139.34906438680795L101.29285714285714,111.53902908471913L101.41714285714285,112.79569856937114L101.5,121.44608637002798L102.24571428571429,80.59505693729106L102.8257142857143,91.81144010103664L102.90857142857143,64.22482721622173L103.65428571428572,217.5384227312528L103.82,59.468368310194734L104.15142857142857,142.39996866079477L104.8557142857143,179.21671199798584L105.10428571428571,133.89615693459143L106.09857142857143,86.27703439272366L106.63714285714286,46.51541775923505L106.76142857142858,186.69942059883704L106.80285714285714,48.62663555145261L106.88571428571429,147.81825608473557L106.96857142857144,185.8717636145078L107.13428571428572,82.59023805765004L107.3,119.25511682950533L107.59,55.41715577932503L108.21142857142858,126.81702221356905L109.62,95.62143868666428L109.78571428571428,122.32916641235352L110.07571428571428,59.541819572448716L110.44857142857143,101.47736505361702L110.94571428571429,154.62650255056528L111.36,0.5870943069457724L111.44285714285714,1.446767880366366L111.52571428571429,104.03707625315738L111.56714285714285,85.02624100905197L111.73285714285714,137.17875913473276L111.85714285714286,49.83162799248325L112.18857142857142,71.54746103286742L112.35428571428572,145.96702311589166L113.18285714285715,107.13205128449658L113.39,72.18144336113562L113.43142857142857,145.25454587202805L113.5142857142857,161.62284953777606L113.63857142857142,105.63206225175122L113.80428571428571,117.80561329768253L113.84571428571428,48.088874376737124L114.13571428571429,106.6222668794485L114.26,-15.039155740004333L114.46714285714286,56.59113546518178L115.25428571428571,66.07692527770995L115.66857142857143,129.8230232825646L115.91714285714285,116.60502793238712L116.16571428571429,110.35703505002535L116.33142857142857,84.06837125924916L116.82857142857142,71.4245362648597L116.87,148.46622679783746L117.90571428571428,-45.6711069253775L118.27857142857142,147.9597721833449L118.98285714285716,124.48099459134615L119.72857142857143,73.69543710121741L119.77,-6.419894952040465L120.43285714285713,-23.046942930955197L121.67571428571429,27.983239907484773L122.00714285714285,59.626533361581636L122.29714285714286,100.29071910564714L122.38,67.4852961026705L122.46285714285713,29.66024648226221L122.67,179.8487111421732L123.70571428571428,-4.6431252406193835L123.74714285714286,151.1260765515841L124.16142857142857,99.89871788024901L124.24428571428572,83.22985164935771L124.45142857142858,205.88326621055603L125.03142857142858,38.9949552095853L125.28,59.370629163888765L125.65285714285714,52.058017363915056L126.27428571428572,221.5603200472318L126.44,135.10224298330454L126.52285714285713,99.93550880138689L127.06142857142858,130.2740630003122L127.55857142857143,20.14011412400464L128.0557142857143,90.25482830634482L128.47,135.42800749265228L128.71857142857144,117.23605588766245L129.42285714285714,119.77257281083325L129.67142857142858,62.237742057213396L129.71285714285713,144.66819260670587L130.04428571428573,0.4970920269305452L130.29285714285714,89.29813377673808L130.54142857142855,148.6577387222877L130.74857142857144,87.4149903150705L131.70142857142858,110.83329303448015L131.99142857142857,4.522221198448733L132.19857142857143,8.186884219829807L132.73714285714286,37.64221147390509L133.02714285714288,65.42915043464072L133.64857142857142,145.99970076634332L134.1457142857143,155.61011288716242L134.27,102.27600878935593L134.85,47.06959937169L134.89142857142858,75.7426870052631L134.9742857142857,64.51708162747894L136.29999999999998,-22.904937157264158L136.34142857142857,136.63884338965784L136.38285714285715,28.923220194303042L136.67285714285714,113.05383894993707L137.12857142857143,114.81539608882022L137.75,58.8184715417715L137.95714285714286,128.00877710489127L139.73857142857145,52.2176187955416L140.11142857142858,85.46342292198767L140.4842857142857,74.34593780224138L140.73285714285714,121.35017534402701L140.89857142857144,145.52574425477246L141.60285714285715,54.73443445792563L141.68571428571428,77.54919631664568L141.72714285714287,81.73258847456711L142.2242857142857,-16.963480876042325L143.67428571428573,-8.52278826786926L144.00571428571428,142.46868639725903L144.95857142857142,50.141102644113374L145.33142857142857,-14.240756841806302L145.4142857142857,11.0411676260141L145.49714285714285,104.52683294736421L145.66285714285715,89.83341393103964L145.70428571428573,47.768284100752595L146.16,58.36718698648305L146.28428571428572,81.61245485452504L146.6157142857143,-20.875462458683927L146.74,171.07416622455304L147.73428571428573,96.38645806679357L147.9,100.88867767040544L147.9828571428571,158.83535781273474L148.6042857142857,-42.58856964111331L149.14285714285714,73.76710921067456L150.09571428571428,61.15211607859683L150.71714285714285,85.13884995533869L151.04857142857145,156.64762012775128L151.25571428571428,139.05059110201321L151.46285714285713,104.13430940187892L151.62857142857143,38.973540086012605L151.71142857142857,24.94447957552393L152.37428571428572,33.06055024953986L153.12,121.09704597179706L153.16142857142856,-5.045083192678618L153.45142857142858,79.75599868480974L153.5757142857143,84.81197551580574L154.57000000000002,108.84671387305625L154.69428571428574,40.83952859731818L154.98428571428573,-129.13126255915722L155.10857142857142,-58.6521974710318L155.15,63.89685916900633L155.23285714285714,-12.563848202045165L155.27428571428572,148.78082671532263L156.31,129.37493793780988L156.68285714285713,74.50929340949423L157.67714285714285,159.1440163392287L158.00857142857143,65.53196587929358L158.5885714285714,54.43512872549202L158.63000000000002,105.47590486819927L158.83714285714285,59.14528069129355L159.3342857142857,-2.7108347232525603L160.5357142857143,98.54646381965048L160.6185714285714,149.9253606062669L160.70142857142858,108.70083966621985L161.03285714285713,22.60621577042798L161.73714285714286,102.84013080596922L161.9442857142857,131.1093670771672L162.8557142857143,143.4587114774264L162.98000000000002,50.27682425425601L163.18714285714287,102.41594160520111L163.64285714285714,151.5406517982483L163.7257142857143,123.93863047086275L164.0157142857143,90.47368042285625L164.2642857142857,70.28447473966156L164.5542857142857,23.579069577730593L164.80285714285714,144.19936136099008L164.92714285714285,180.8189125427833L165.6314285714286,70.83522862654465L166.12857142857143,99.9141916128305L166.25285714285715,100.06249787257266L166.54285714285714,106.01820369867177L167.2057142857143,70.55728905017558L167.28857142857143,72.40220521046564L167.53714285714287,166.52165699005127L167.70285714285714,2.8492626043466203L168.36571428571426,107.98062555606548L169.07,31.46969384413495L169.89857142857142,12.014706978431093L170.6442857142857,160.1896032186655L170.72714285714287,38.12225627899167L170.81,-24.65085733853857L170.93428571428572,61.90526899924643L171.05857142857144,113.88729858398436L171.76285714285714,73.02753661229059L172.21857142857144,178.61287733224722L172.79857142857142,94.6947449170626L174.04142857142855,121.03459607637845L174.12428571428572,83.57579077207123L175.11857142857144,-31.136636440570555L175.28428571428572,96.13043961158164L175.36714285714288,47.33009019264804L175.6157142857143,100.16619473237256L175.74,102.2259803185096L175.82285714285715,64.96614632239707L176.19571428571427,115.72828102111816L176.48571428571427,54.517557364243714L177.02428571428572,42.56852234326874L177.35571428571427,128.43146463540884L177.89428571428573,153.56358117323654L177.97714285714287,80.75740054937508L178.10142857142856,85.70440835219162L178.59857142857143,88.45517444610594L178.7642857142857,57.60038845355693L178.97142857142856,35.832274436950655L179.05428571428573,-17.925529186542235L179.6342857142857,-77.49123837397653L180.8357142857143,70.77475375395554L181.04285714285714,-216.55204083369335L182.41,-10.146844643812926L183.15571428571428,114.42398247352013L183.48714285714286,93.79694197728082L183.77714285714285,22.621069247906007L183.94285714285712,95.28695796086237L184.39857142857144,-113.04837417602545L184.64714285714285,26.98319281064545L184.8957142857143,102.29799520052394L185.80714285714285,68.31124738546517L186.26285714285711,74.93965251629167L186.47,-59.31126748598541L186.84285714285713,132.81614589691162L186.8842857142857,43.939024961911684L187.38142857142856,84.08257183661826L187.83714285714285,118.77507202441875L187.96142857142857,63.563145600832414L188.37571428571428,19.546105604905307L190.32285714285715,-11.47226450993469L190.53,146.17941152132474L190.57142857142858,-61.27770467904901L190.9857142857143,183.52012351843027L194.01000000000002,58.01338041745697L194.46571428571428,74.79407211450429L194.50714285714287,99.17605539468617L194.59,109.36072580630962L194.67285714285714,74.19319182175855L194.79714285714286,52.024915328392595L194.8385714285714,90.46134061079758L195.8742857142857,122.51854008894699L196.08142857142857,71.38030228248007L196.2057142857143,74.86564628894511L196.53714285714287,72.43442583084105L196.99285714285713,-91.00375696328973L197.3657142857143,87.23999676337607L197.49,111.77918206728421L197.53142857142856,44.759018531212405L198.15285714285713,95.10022852971002L198.8157142857143,88.23056048613327L199.0642857142857,1.6796247042142056L199.23000000000002,149.56407833099365L199.60285714285715,59.12815838593701L199.6857142857143,30.9219106527475L200.0585714285714,148.0713038444519L200.2242857142857,-8.835853870098447L200.47285714285715,121.72410755891065L200.67999999999998,79.96262524678156L201.75714285714287,-29.29542548839865L202.13,117.25469618577222L202.7514285714286,32.757735179020784L203.04142857142858,64.81276376430803L203.29,138.86885635669415L203.4557142857143,62.21931395163901L203.49714285714288,157.47505675829373L204.28428571428572,97.72586631774901L204.40857142857143,67.2284451998197L204.65714285714287,132.36647726939273L205.89999999999998,-54.66780926631051L206.14857142857142,109.30668199979341L206.76999999999998,109.38274486248308L206.85285714285715,54.703470670259904L207.55714285714288,12.436317223768924L207.59857142857143,173.54878821739783L208.38571428571427,45.99605204508853L208.42714285714285,107.06070562509389L208.55142857142857,87.00665026444653L208.9242857142857,120.76192866838895L209.38,141.62229934105505L210.41571428571427,68.38009570195123L210.54,25.96750875619739L210.99571428571429,60.02516152308536L211.12,67.79330172905554L211.20285714285714,48.51237803239087L211.28571428571428,84.47186352656436L211.78285714285715,-108.98018624232373L213.35714285714286,-43.785498765798735L213.64714285714288,28.894851684570284L213.97857142857143,62.87536430358885L214.14428571428573,152.80673936697153L214.43428571428572,8.255863116337679L214.47571428571428,180.41385331520667L214.5171428571429,-28.391877027658353L214.93142857142857,23.393907106839663L216.00857142857143,-22.17979365128741L216.87857142857143,217.08357987037073L217.33428571428573,89.73019042381871L217.5,30.68324301793021L217.54142857142855,22.757296855633058L217.87285714285716,21.11678739694446L217.99714285714285,-92.61358011685888L218.12142857142857,63.49232226151685L218.24571428571429,76.98001432418822L218.61857142857144,158.57690730461707L218.78428571428572,21.198301975543643L219.0742857142857,110.66033979562611L219.1157142857143,93.75518901531511L219.36428571428573,55.908675303825945L219.61285714285717,103.27752491144032L219.69571428571427,11.898947789118807L219.82,113.40212851304273L221.27,92.10818320054273L221.76714285714286,130.21215174748346L222.55428571428573,20.71544969998871L222.63714285714283,-155.78284087547894L223.42428571428573,118.80061674118042L223.50714285714284,151.75090195582462L224.3357142857143,50.323522934546816L225.33,188.3654747742873L225.45428571428573,140.27144901569073L225.99285714285713,80.56141625917874L226.32428571428574,18.944588734553378L226.69714285714286,78.75484165778525L226.82142857142858,188.47622295526358L226.90428571428572,85.66804181612454L226.9457142857143,151.31662544837366L227.5257142857143,30.137516461885866L228.76857142857142,80.71039174153253L229.01714285714286,94.03394471682033L229.14142857142858,184.8062714430002L229.43142857142857,84.2775604541485L229.97,-69.39152284768915L230.05285714285714,-60.1405485593356L230.09428571428572,23.62065931466907L230.38428571428574,91.91027285502506L231.13000000000002,74.84475348545953L232.08285714285714,127.04372545389029L232.29000000000002,47.38687617962174L233.1185714285714,75.78127340170052L233.20142857142858,-41.81759254749008L234.52714285714285,197.0768108001122L234.7342857142857,169.79379646594708L235.27285714285713,124.85045444048367L235.43857142857144,112.3896436691284L236.1842857142857,104.61801044757549L236.5157142857143,97.65391672574555L237.46857142857144,-63.64498989398666L237.59285714285716,14.176883624150179L237.6342857142857,146.39408507713904L237.79999999999998,81.72506380081175L237.8414285714286,61.31633677849402L238.91857142857143,161.25991868972778L239.8714285714286,155.81287101598886L240.41,35.05457247220551L241.07285714285715,17.8161488312941L241.52857142857144,77.869623367603L242.1914285714286,105.26922933871928L242.77142857142857,115.76768354269174L242.81285714285715,-42.55164813995364L242.93714285714287,-1.0482898858877547L243.64142857142858,11.728867310744022L244.63571428571427,121.56798282036414L244.71857142857144,92.51993465423583L245.29857142857142,2.718747872572635L246.08571428571426,156.7373612477229L246.12714285714287,-38.050881239084134L246.20999999999998,77.49216549213115L246.41714285714286,188.90609238697934L247.57714285714286,120.41375336280235L247.95,96.0627338702862L248.24,18.24298227750336L248.40571428571428,82.86683918879581L248.65428571428572,112.98544766352725L248.90285714285716,-4.740374711843657L249.10999999999999,11.895617998563296L249.2342857142857,148.01017607175388L249.31714285714287,15.306107007540163L249.93857142857144,191.8813500220959L250.31142857142856,40.69700050354001L250.64285714285717,37.23751134138837L251.34714285714284,103.14328864904549L251.55428571428573,199.02504840263953L251.63714285714283,79.93727640005257L252.1342857142857,44.874075852907595L252.21714285714285,54.28659395071175L252.46571428571428,2.0018309079683547L252.96285714285716,87.38611580775333L253.17,32.91717338562009L253.58428571428573,80.33722668427686L253.99857142857144,68.19524335861205L255.15857142857143,121.27280668111948L255.24142857142857,-5.887193753169157L255.40714285714284,64.58638697404126L256.02857142857147,53.55224455319916L257.72714285714284,22.792096431438722L257.8514285714286,9.513218146104037L258.59714285714284,154.38050611202533L259.05285714285714,50.3293663905217L259.34285714285716,-50.796960390531126L260.04714285714283,70.38980384973378L260.1714285714286,-66.88487610450161L260.37857142857143,152.1472449669471L260.5857142857143,44.9989593212421L260.8342857142857,108.4052554644071L261.33142857142855,16.91390617077164L261.37285714285713,50.244032346285294L262.07714285714286,130.99861889619092L262.20142857142855,90.50630910579973L262.49142857142857,38.06313617412857L263.61,75.49215291096613L263.6928571428571,118.7280632165762L263.98285714285714,132.450521835914L264.7285714285714,86.91883519979622L264.81142857142856,-23.93031677832974L265.4742857142857,-66.08641191629266L265.8885714285714,155.5147241812486L265.93,-8.160689867459837L266.3442857142857,171.01566637479343L266.51,96.845348908351L266.5514285714286,68.1664667863112L267.3385714285714,107.82861408820517L267.54571428571427,121.23386118962213L267.62857142857143,92.60577469605664L267.7942857142857,155.71253659174994L268.16714285714284,-27.678420433631345L268.91285714285715,82.5606127152076L269.74142857142857,28.96621366647571L269.9485714285714,4.048411589402377L270.32142857142856,181.6070690705226L270.57,130.25284374677216L270.6114285714286,-105.10786834129925L270.65285714285716,181.56920902545636L270.77714285714285,82.5430170572721L270.9014285714286,-21.60181382986218L271.8128571428571,228.8329253930312L272.55857142857144,62.49738410802986L272.7242857142857,30.370928250826296L272.93142857142857,128.0141635307899L273.2214285714286,102.34941108410173L273.5942857142857,-14.117228141197813L273.6771428571429,106.05661054757924L274.0914285714286,171.33183325254L274.34,165.7318600507883L274.42285714285714,12.26267843980051L274.6714285714286,17.11326921903168L274.7542857142857,68.46980417691742L274.83714285714285,77.80805488733144L275.3342857142857,-132.73458561530487L275.41714285714284,136.12515790645892L275.5,115.86126045080331L276.45285714285717,101.29288812784047L276.8257142857143,106.56683566020084L276.95,137.3356183859018L277.61285714285714,31.750212375934268L278.02714285714285,113.3446733034574L278.06857142857143,38.250649085411624L278.1514285714286,-144.14146870833184L278.4,31.16100267263556L278.6485714285714,165.98167595496545L278.93857142857144,-59.15163340935342L279.1457142857143,50.165570075695314L279.43571428571425,77.24074998268713L279.6842857142857,102.69450143667366L280.22285714285715,54.122030478257386L281.3,-66.59942817687991L282.12857142857143,-83.86400046715374L282.2528571428571,36.81622754610498L282.41857142857145,-173.8090537878184L282.46,86.50385189056395L282.75,103.59816415493303L283.45428571428573,222.06935361715463L283.90999999999997,64.68670507577748L284.36571428571426,56.6555767059326L284.6557142857143,116.82232941113985L284.9042857142857,101.12636595505933L285.8985714285714,134.2801111661471L288.1771428571428,148.5965130145733L288.34285714285716,-9.134588314936735L288.88142857142856,-29.83935656914346L289.33714285714285,158.69707356966458L289.5028571428572,-120.62397413987384L289.8342857142857,101.32876498882585L289.87571428571425,161.23701821840726L290.0414285714286,64.2683266859788" style="fill: none;" fill="none"></path></g></g></g></g></g></g><g transform="translate(40, 178)" clip-path="url(#clip_1)"><clipPath id="clip_1"><rect width="290" height="22"></rect></clipPath><g><g><line x1="0" y1="0" x2="0" y2="5" style="visibility: inherit;" fill="rgb(0, 0, 0)" stroke="rgb(204, 204, 204)" stroke-width="1px"></line><line x1="20.71428571428571" y1="0" x2="20.71428571428571" y2="5" style="visibility: inherit;" fill="rgb(0, 0, 0)" stroke="rgb(204, 204, 204)" stroke-width="1px"></line><line x1="41.42857142857142" y1="0" x2="41.42857142857142" y2="5" style="visibility: inherit;" fill="rgb(0, 0, 0)" stroke="rgb(204, 204, 204)" stroke-width="1px"></line><line x1="62.14285714285714" y1="0" x2="62.14285714285714" y2="5" style="visibility: inherit;" fill="rgb(0, 0, 0)" stroke="rgb(204, 204, 204)" stroke-width="1px"></line><line x1="82.85714285714285" y1="0" x2="82.85714285714285" y2="5" style="visibility: inherit;" fill="rgb(0, 0, 0)" stroke="rgb(204, 204, 204)" stroke-width="1px"></line><line x1="103.57142857142857" y1="0" x2="103.57142857142857" y2="5" style="visibility: inherit;" fill="rgb(0, 0, 0)" stroke="rgb(204, 204, 204)" stroke-width="1px"></line><line x1="124.28571428571428" y1="0" x2="124.28571428571428" y2="5" style="visibility: inherit;" fill="rgb(0, 0, 0)" stroke="rgb(204, 204, 204)" stroke-width="1px"></line><line x1="145" y1="0" x2="145" y2="5" style="visibility: inherit;" fill="rgb(0, 0, 0)" stroke="rgb(204, 204, 204)" stroke-width="1px"></line><line x1="165.7142857142857" y1="0" x2="165.7142857142857" y2="5" style="visibility: inherit;" fill="rgb(0, 0, 0)" stroke="rgb(204, 204, 204)" stroke-width="1px"></line><line x1="186.42857142857144" y1="0" x2="186.42857142857144" y2="5" style="visibility: inherit;" fill="rgb(0, 0, 0)" stroke="rgb(204, 204, 204)" stroke-width="1px"></line><line x1="207.14285714285714" y1="0" x2="207.14285714285714" y2="5" style="visibility: inherit;" fill="rgb(0, 0, 0)" stroke="rgb(204, 204, 204)" stroke-width="1px"></line><line x1="227.85714285714286" y1="0" x2="227.85714285714286" y2="5" style="visibility: inherit;" fill="rgb(0, 0, 0)" stroke="rgb(204, 204, 204)" stroke-width="1px"></line><line x1="248.57142857142856" y1="0" x2="248.57142857142856" y2="5" style="visibility: inherit;" fill="rgb(0, 0, 0)" stroke="rgb(204, 204, 204)" stroke-width="1px"></line><line x1="269.2857142857143" y1="0" x2="269.2857142857143" y2="5" style="visibility: inherit;" fill="rgb(0, 0, 0)" stroke="rgb(204, 204, 204)" stroke-width="1px"></line><line x1="290" y1="0" x2="290" y2="5" style="visibility: inherit;" fill="rgb(0, 0, 0)" stroke="rgb(204, 204, 204)" stroke-width="1px"></line></g><g transform="translate(0, 8)"><text x="0" y="0" dx="0em" dy="0.95em" style="text-anchor: middle; visibility: hidden; font-family: &quot;Helvetica Neue&quot;, sans-serif; font-size: 12px; font-weight: 200;" fill="rgb(50, 49, 63)" stroke="none" stroke-width="1px">-500</text><text x="20.71428571428571" y="0" dx="0em" dy="0.95em" style="text-anchor: middle; visibility: inherit; font-family: &quot;Helvetica Neue&quot;, sans-serif; font-size: 12px; font-weight: 200;" fill="rgb(50, 49, 63)" stroke="none" stroke-width="1px">0</text><text x="41.42857142857142" y="0" dx="0em" dy="0.95em" style="text-anchor: middle; visibility: hidden; font-family: &quot;Helvetica Neue&quot;, sans-serif; font-size: 12px; font-weight: 200;" fill="rgb(50, 49, 63)" stroke="none" stroke-width="1px">500</text><text x="62.14285714285714" y="0" dx="0em" dy="0.95em" style="text-anchor: middle; visibility: inherit; font-family: &quot;Helvetica Neue&quot;, sans-serif; font-size: 12px; font-weight: 200;" fill="rgb(50, 49, 63)" stroke="none" stroke-width="1px">1k</text><text x="82.85714285714285" y="0" dx="0em" dy="0.95em" style="text-anchor: middle; visibility: hidden; font-family: &quot;Helvetica Neue&quot;, sans-serif; font-size: 12px; font-weight: 200;" fill="rgb(50, 49, 63)" stroke="none" stroke-width="1px">1.5k</text><text x="103.57142857142857" y="0" dx="0em" dy="0.95em" style="text-anchor: middle; visibility: inherit; font-family: &quot;Helvetica Neue&quot;, sans-serif; font-size: 12px; font-weight: 200;" fill="rgb(50, 49, 63)" stroke="none" stroke-width="1px">2k</text><text x="124.28571428571428" y="0" dx="0em" dy="0.95em" style="text-anchor: middle; visibility: hidden; font-family: &quot;Helvetica Neue&quot;, sans-serif; font-size: 12px; font-weight: 200;" fill="rgb(50, 49, 63)" stroke="none" stroke-width="1px">2.5k</text><text x="145" y="0" dx="0em" dy="0.95em" style="text-anchor: middle; visibility: inherit; font-family: &quot;Helvetica Neue&quot;, sans-serif; font-size: 12px; font-weight: 200;" fill="rgb(50, 49, 63)" stroke="none" stroke-width="1px">3k</text><text x="165.7142857142857" y="0" dx="0em" dy="0.95em" style="text-anchor: middle; visibility: hidden; font-family: &quot;Helvetica Neue&quot;, sans-serif; font-size: 12px; font-weight: 200;" fill="rgb(50, 49, 63)" stroke="none" stroke-width="1px">3.5k</text><text x="186.42857142857144" y="0" dx="0em" dy="0.95em" style="text-anchor: middle; visibility: inherit; font-family: &quot;Helvetica Neue&quot;, sans-serif; font-size: 12px; font-weight: 200;" fill="rgb(50, 49, 63)" stroke="none" stroke-width="1px">4k</text><text x="207.14285714285714" y="0" dx="0em" dy="0.95em" style="text-anchor: middle; visibility: hidden; font-family: &quot;Helvetica Neue&quot;, sans-serif; font-size: 12px; font-weight: 200;" fill="rgb(50, 49, 63)" stroke="none" stroke-width="1px">4.5k</text><text x="227.85714285714286" y="0" dx="0em" dy="0.95em" style="text-anchor: middle; visibility: inherit; font-family: &quot;Helvetica Neue&quot;, sans-serif; font-size: 12px; font-weight: 200;" fill="rgb(50, 49, 63)" stroke="none" stroke-width="1px">5k</text><text x="248.57142857142856" y="0" dx="0em" dy="0.95em" style="text-anchor: middle; visibility: hidden; font-family: &quot;Helvetica Neue&quot;, sans-serif; font-size: 12px; font-weight: 200;" fill="rgb(50, 49, 63)" stroke="none" stroke-width="1px">5.5k</text><text x="269.2857142857143" y="0" dx="0em" dy="0.95em" style="text-anchor: middle; visibility: inherit; font-family: &quot;Helvetica Neue&quot;, sans-serif; font-size: 12px; font-weight: 200;" fill="rgb(50, 49, 63)" stroke="none" stroke-width="1px">6k</text><text x="290" y="0" dx="0em" dy="0.95em" style="text-anchor: middle; visibility: hidden; font-family: &quot;Helvetica Neue&quot;, sans-serif; font-size: 12px; font-weight: 200;" fill="rgb(50, 49, 63)" stroke="none" stroke-width="1px">6.5k</text></g><line x1="0" y1="0" x2="290" y2="0" fill="rgb(0, 0, 0)" stroke="rgb(204, 204, 204)" stroke-width="1px"></line></g></g></g></g></svg>